<?xml version="1.0" encoding="utf-8"?>
<!-- Generator: Adobe Illustrator 19.2.1, SVG Export Plug-In . SVG Version: 6.00 Build 0)  -->
<svg version="1.1" id="Layer_1" xmlns="http://www.w3.org/2000/svg" xmlns:xlink="http://www.w3.org/1999/xlink" x="0px" y="0px"
	 viewBox="0 0 100 100" style="enable-background:new 0 0 100 100;" xml:space="preserve">
<style type="text/css">
	.st0{fill:none;}
	.st1{fill:#C9C9C9;}
	.st2{fill:#EE3125;}
</style>
<g>
	<polygon class="st0" points="80.1,42.6 79.9,31.3 74,30.7 74.7,42.7 	"/>
	<polygon class="st0" points="75.5,58.2 80.3,57.8 80.1,44.9 74.8,45 	"/>
	<polygon class="st0" points="65.6,59.1 73.3,58.4 72.5,45 64.1,45.2 	"/>
	<path class="st0" d="M29.3,22.3c0.1,0.2,0.2,0.6,0.4,1.3l5.8,0.6c-0.2-0.9-0.5-2.2-1.1-2.6c-0.6-0.5-2.3-1.7-4.2-3.1l-3.1,1.6
		C28.2,20.9,29,21.7,29.3,22.3z"/>
	<polygon class="st0" points="42.8,45.5 45.4,60.9 53.9,60.1 51.4,45.4 	"/>
	<polygon class="st0" points="72.4,42.7 71.7,30.4 62.4,29.5 63.8,42.9 	"/>
	<polygon class="st0" points="56.2,59.9 63.3,59.3 61.8,45.2 53.7,45.3 	"/>
	<path class="st0" d="M43.1,61.1l-2.7-15.6l-5.5,0.1c1.4,6.4,2.8,12.5,3.5,15.9L43.1,61.1z"/>
	<polygon class="st0" points="50.9,43.1 48.3,28.1 39.7,27.3 42.4,43.2 	"/>
	<polygon class="st0" points="61.5,42.9 60,29.3 50.7,28.4 53.3,43 	"/>
	<path class="st0" d="M37.3,27.1l-6.8-0.7c1,4,2.5,10.5,3.9,17l5.7-0.1L37.3,27.1z"/>
	<path d="M27.8,83.8c0-1.4,1.2-3.8,1.9-5.3h-1c-0.4,0-0.8-0.2-1-0.5c-2.3,1-3.9,3.2-3.9,5.8c0,3.5,2.8,6.4,6.4,6.4
		c3.5,0,6.4-2.8,6.4-6.4c0-1.5-0.5-2.9-1.4-4c-1.2,2-3.1,5.1-3.9,5.9C30,87,27.7,85.8,27.8,83.8z"/>
	<path d="M74,83.8c0-1.3,1-3.7,1.7-5.3H73c-1.8,1.1-3,3.1-3,5.4c0,3.5,2.8,6.4,6.4,6.4c3.5,0,6.4-2.8,6.4-6.4c0-1.5-0.5-2.9-1.4-4
		c-1.2,2-3.1,5.1-3.9,5.9C76.2,87,73.9,85.8,74,83.8z"/>
	<path class="st1" d="M24.5,11.2C24.5,11.2,24.5,11.2,24.5,11.2c-0.3-0.2-0.7-0.4-1-0.6c0.1,0.1,0.2,0.1,0.3,0.2
		C24,10.9,24.3,11,24.5,11.2z"/>
	<path class="st1" d="M81.8,60.3c0.7-0.1,1.2-0.7,1.2-1.4l-0.5-29.3c0-0.7-0.5-1.3-1.2-1.3c-15.5-1.3-38.6-3.3-43-3.9
		c0-0.1,0-0.1,0-0.2c-0.3-1.4-0.7-3.6-2.1-4.7c-0.5-0.5-1.8-1.4-3.3-2.5l-2.7,1.4c1.9,1.4,3.6,2.6,4.2,3.1c0.5,0.5,0.9,1.7,1.1,2.6
		l-5.8-0.6c-0.2-0.7-0.3-1.1-0.4-1.3c-0.3-0.6-1.1-1.4-2.2-2.2l-2.6,1.4c-0.1,0-0.2-0.1-0.4-0.2c1.3,0.9,2.5,1.9,2.8,2.3
		c0.7,1.8,5.7,24.1,8.9,38.8c0,0.2,0.1,0.4,0.2,0.5c-0.9,1.4-3.1,4.8-8.6,13.6c-0.3,0.4-0.3,0.9,0,1.4c0,0.1,0.1,0.2,0.2,0.2
		c0.3,0.3,0.6,0.5,1,0.5h1c-0.7,1.4-1.8,3.9-1.9,5.3c-0.1,2,2.3,3.2,3.4,2c0.8-0.8,2.7-3.9,3.9-5.9c0.3-0.6,0.6-1,0.8-1.4H73h2.8
		c-0.7,1.6-1.7,4-1.7,5.3c-0.1,2,2.3,3.2,3.4,2c0.8-0.8,2.7-3.9,3.9-5.9c0.6-1,1-1.8,1-1.8l-0.1,0c0.2-0.2,0.4-0.6,0.4-0.9
		c0-0.7-0.6-1.3-1.3-1.3H31c2.8-4.4,6.3-10,7.4-11.6L81.8,60.3z M45.4,60.9l-2.6-15.4l8.6-0.1l2.6,14.8L45.4,60.9z M80.3,57.8
		l-4.8,0.4L74.8,45l5.3-0.1L80.3,57.8z M79.9,31.3l0.2,11.3l-5.4,0.1l-0.7-12L79.9,31.3z M73.3,58.4l-7.6,0.7l-1.5-13.9l8.4-0.1
		L73.3,58.4z M71.7,30.4l0.7,12.3l-8.5,0.1l-1.5-13.3L71.7,30.4z M63.3,59.3l-7.1,0.6l-2.6-14.6l8.1-0.1L63.3,59.3z M60,29.3
		l1.5,13.6L53.3,43l-2.6-14.7L60,29.3z M48.3,28.1l2.6,14.9l-8.6,0.1l-2.7-15.9L48.3,28.1z M30.5,26.4l6.8,0.7l2.8,16.2l-5.7,0.1
		C33,36.9,31.5,30.4,30.5,26.4z M34.9,45.6l5.5-0.1l2.7,15.6l-4.7,0.4C37.7,58.1,36.3,52,34.9,45.6z"/>
	<path class="st2" d="M27.1,20.1l3.1-1.6l2.7-1.4l0,0c0,0-4.3-3.2-8.5-5.8c-0.2-0.1-0.5-0.3-0.7-0.4c-0.1-0.1-0.2-0.1-0.3-0.2
		C19,8,15.1,12,17.8,16.7c1.1,1.9,5,3.8,6.3,4.5c0.2,0.1,0.3,0.2,0.4,0.2L27.1,20.1z"/>
</g>
</svg>
