<svg xmlns="http://www.w3.org/2000/svg" width="300" height="200" viewBox="0 0 300 200">
  <g fill="none" fill-rule="evenodd">
    <rect width="300" height="200" fill="none"/>
    <g transform="translate(148)">
      <circle cx="64" cy="64" r="23" fill="#C2E8FF"/>
      <circle cx="64" cy="64" r="45" stroke="#C2E8FF" stroke-dasharray="135 1 1 18" stroke-linecap="round" stroke-linejoin="round" stroke-width="3" transform="rotate(-130 64 64)"/>
      <circle cx="64" cy="64" r="33" stroke="#C2E8FF" stroke-dasharray="107 10" stroke-linecap="round" stroke-linejoin="round" stroke-width="3" transform="rotate(150 64 64)"/>
      <g stroke="#8CD3F8" stroke-width="3" transform="translate(41 41)">
        <circle cx="23" cy="23" r="23"/>
      </g>
    </g>
    <g stroke="#C2E8FF" stroke-linecap="round" stroke-width="3" transform="translate(18 124)">
      <path d="M14 36.5L259 36.5M0 36.5L6 36.5"/>
      <polyline stroke-linejoin="round" points="114.5 36 159.5 0 193.5 26"/>
      <path stroke-linejoin="round" d="M159.5 1L159.5 35M193.5 11C193.5 20.7437888 193.5 25.7437888 193.5 26 193.5 25.7437888 193.5 20.7437888 193.5 11z"/>
      <polyline stroke-linejoin="round" points="183.5 17 193.5 9 227.5 36"/>
    </g>
    <g transform="translate(25 46)">
      <path fill="#C2E8FF" d="M29.5,60.5 L29.5,12 C29.5,5.372583 34.872583,0 41.5,0 C48.127417,0 53.5,5.372583 53.5,12 L53.5,40.5 L70.5,40.5 L70.5,27 C70.5,23.1340068 73.6340068,20 77.5,20 C81.3659932,20 84.5,23.1340068 84.5,27 L84.5,48.5 C84.5,51.8137085 81.8137085,54.5 78.5,54.5 L53.5,54.5 L53.5,118.5 L29.5,118.5 L29.5,74.5 L6.5,74.5 C3.1862915,74.5 0.5,71.8137085 0.5,68.5 L0.5,39 C0.5,35.1340068 3.63400675,32 7.5,32 C11.3659932,32 14.5,35.1340068 14.5,39 L14.5,60.5 L29.5,60.5 Z" transform="translate(5 8)"/>
      <path fill="#FFF" d="M2,11 C3.65332031,8.49145508 5.65181478,6.77364095 7.9954834,5.84655762 C11.5109863,4.45593262 15.2684326,4.95605469 17.8156738,6.2824707 C20.362915,7.60888672 22.3626709,9.64978027 23.2602539,11.81604 C23.8586426,13.2602132 23.8586426,11.7547201 23.2602539,7.29956055 L19.612793,3.56494141 L13.7923584,0.564331055 L8.765625,1.42663574 L4.67321777,3.19787598 C2.69893392,5.13902708 1.69559733,6.16722532 1.66320801,6.2824707 C1.61462402,6.45533878 0.856079102,9.49145508 0.813964844,9.66003418 C0.785888672,9.77242025 1.18123372,10.2190755 2,11 Z" transform="translate(34 7)"/>
      <g stroke="#8CD3F8" stroke-width="3">
        <path stroke-linecap="round" d="M19 126.5L225 126.5M82.5 20L82.5 28M88 30.6568542L93.6568542 25M12.5 32L12.5 40M19 42.6568542L24.6568542 37"/>
        <path stroke-linecap="round" d="M0,42.6568542 L5.65685425,37" transform="matrix(-1 0 0 1 5.657 0)"/>
        <path stroke-linecap="round" d="M46.5 0L46.5 8M54 10.6568542L59.6568542 5"/>
        <path stroke-linecap="round" d="M33,10.6568542 L38.6568542,5" transform="matrix(-1 0 0 1 71.657 0)"/>
        <path d="M34.5,68.5 L34.5,20 C34.5,13.372583 39.872583,8 46.5,8 C53.127417,8 58.5,13.372583 58.5,20 L58.5,48.5 L75.5,48.5 L75.5,35 C75.5,31.1340068 78.6340068,28 82.5,28 C86.3659932,28 89.5,31.1340068 89.5,35 L89.5,56.5 C89.5,59.8137085 86.8137085,62.5 83.5,62.5 L58.5,62.5 L58.5,126.5 L34.5,126.5 L34.5,82.5 L11.5,82.5 C8.1862915,82.5 5.5,79.8137085 5.5,76.5 L5.5,47 C5.5,43.1340068 8.63400675,40 12.5,40 C16.3659932,40 19.5,43.1340068 19.5,47 L19.5,68.5 L34.5,68.5 Z"/>
        <path fill="#C2E8FF" stroke-linecap="round" stroke-linejoin="round" d="M52,88.5 L67.5,88.5 L67.5,81 L67.5,81 C67.5,77.1340068 70.6340068,74 74.5,74 L74.5,74 L74.5,74 C78.3659932,74 81.5,77.1340068 81.5,81 L81.5,96.5 L81.5,96.5 C81.5,99.8137085 78.8137085,102.5 75.5,102.5 L52,102.5"/>
      </g>
    </g>
  </g>
</svg>
