<svg width="24" height="24" viewBox="0 0 24 24" version="1.1" xmlns="http://www.w3.org/2000/svg" xmlns:xlink="http://www.w3.org/1999/xlink"><title>Group 2</title><desc>Created with Sketch.</desc><defs><path d="M12,0 L22.0345787,0 L22.0345787,0 C23.1200509,-1.99398014e-16 24,0.879949103 24,1.96542133 L24,3.93084266 L24,13.9654213 L24,13.9654213 C24,19.5073661 19.5073661,24 13.9654213,24 L12,24 L12,24 C5.372583,24 2.58798134e-15,18.627417 1.77635684e-15,12 L0,12 L0,12 C-8.11624501e-16,5.372583 5.372583,1.21743675e-15 12,0 Z" id="path-1"/><linearGradient x1="84.736%" y1="54.281%" x2="-6.873%" y2="21.32%" id="linearGradient-3"><stop stop-color="#715034" offset="0%"/><stop stop-color="#996733" offset="100%"/></linearGradient><linearGradient x1="92.375%" y1="57.92%" x2="-19.629%" y2="-13.947%" id="linearGradient-4"><stop stop-color="#715035" offset="0%"/><stop stop-color="#986733" offset="100%"/></linearGradient><linearGradient x1="2758%" y1="4393%" x2="3961%" y2="4393%" id="linearGradient-5"><stop stop-color="#715035" offset="0%"/><stop stop-color="#986733" offset="100%"/></linearGradient><linearGradient x1="2938%" y1="4659%" x2="3780%" y2="4659%" id="linearGradient-6"><stop stop-color="#715035" offset="0%"/><stop stop-color="#986733" offset="100%"/></linearGradient><linearGradient x1="3531%" y1="4465%" x2="3930%" y2="4465%" id="linearGradient-7"><stop stop-color="#715035" offset="0%"/><stop stop-color="#986733" offset="100%"/></linearGradient></defs><g id="Page-1" stroke="none" stroke-width="1" fill="none" fill-rule="evenodd"><g id="Group-2"><rect id="Rectangle-path-Copy-2" fill="#032E61" fill-rule="nonzero" x="0" y="0" width="24" height="24" rx="2"/><g id="Clipped-Copy-2"><mask id="mask-2" fill="#fff"><use xlink:href="#path-1"/></mask><g id="Group" mask="url(#mask-2)"><g transform="translate(2.500000, 0.500000)"><path d="M5.5,17.57 C4.895,16.745 4.44,17.17 4.33,17.07 C4.13,16.905 3.945,16.705 3.56,16.395 C3.3,16.19 2.735,15.755 2.68,16.205 C2.625,16.655 3.44,17.285 3.355,17.435 L3.355,17.47 C3.235,17.47 3.045,17.47 3.005,17.61 L2.945,17.87 C2.92496392,17.958262 2.95135927,18.0506457 3.015,18.115 C3.03222003,18.1301866 3.04208497,18.15204 3.04208497,18.175 C3.04208497,18.19796 3.03222003,18.2198134 3.015,18.235 C2.93763079,18.2752053 2.89220484,18.358157 2.9,18.445 L2.9,18.735 C2.90210509,18.8285787 2.95342117,18.9141055 3.035,18.96 C3.0888473,18.9887957 3.11080044,19.0546551 3.085,19.11 C3.05985816,19.1629262 3.04949249,19.2216651 3.055,19.28 C3.05651068,19.3876408 3.08213941,19.4935729 3.13,19.59 C3.52972583,20.1119035 4.13016691,20.4420554 4.785,20.5 C5.285,20.5 5.74,20 6,18.965 C6.05904768,18.818166 6.094486,18.6629124 6.105,18.505 C6.125,18.25 5.705,17.825 5.5,17.57 Z" id="Shape" fill="#FDD5A6" fill-rule="nonzero"/><path d="M4.35,17.08 C4.155,16.91 3.965,16.715 3.58,16.405 C3.32,16.2 2.755,15.765 2.7,16.215 C2.645,16.665 3.46,17.295 3.375,17.445 L3.375,17.48 L3.7,17.48 C3.69473389,17.4552773 3.69473389,17.4297227 3.7,17.405 C3.88675186,17.2450254 4.10996924,17.1334167 4.35,17.08 L4.35,17.08 Z" id="Shape" fill="#FDD5A6" fill-rule="nonzero" opacity=".5" style="mix-blend-mode:multiply"/><path d="M4.5,18.035 C4.62424314,18.3535127 4.64865715,18.7022843 4.57,19.035 C4.54519692,19.2752 4.42438528,19.4951853 4.235,19.645 C3.91659183,19.7681111 3.56961893,19.7976038 3.235,19.73 C3.4,20.045 4.4,20.55 4.86,20.7 C6.205,21.11 5.8,19.755 5.8,19.755 C5.8,19.755 5.115,19.595 5.04,18.985 C4.865,17.78 4.65,18.06 4.5,18.035 Z" id="Shape" fill="#FDD5A6" fill-rule="nonzero" opacity=".59" style="mix-blend-mode:multiply"/><path d="M7.5,18.065 C7.06115747,18.2961263 6.55541398,18.3668596 6.07,18.265 C6.07,18.265 6.295,19.765 4.07,20.48 C4.05026533,20.5531611 4.0670199,20.6313492 4.115,20.69 C4.79230292,20.9935506 5.49720962,21.2313101 6.22,21.4 L6.88,18.97 C6.88,18.97 7.83,17.88 7.5,18.065 Z" id="Shape" fill="url(#linearGradient-3)" fill-rule="nonzero"/><g id="Group" opacity=".2" style="mix-blend-mode:multiply" stroke-width="1" fill="none" fill-rule="evenodd" transform="translate(4.000000, 19.500000)"><path d="M2.855,0.415 L2.225,1.915 C1.50220962,1.74631011 0.797302918,1.5085506 0.12,1.205 C0.0720199015,1.14634916 0.0552653261,1.06816114 0.075,0.995 C0.42801635,0.890965771 0.76464662,0.737798998 1.075,0.54 C1.65852447,0.757474755 2.30759692,0.711893824 2.855,0.415 L2.855,0.415 Z" id="Shape" fill="url(#linearGradient-4)" fill-rule="nonzero"/></g><path d="M11.42,16.16 L11.495,16.86 C11.0646094,17.5375965 10.2953116,17.9222454 9.495,17.86 C8.965,17.82 8.26,17.62 8.205,17.36 C8.14818181,17.1267435 8.14818181,16.8832565 8.205,16.65 L11.42,16.16 Z" id="Shape" fill="#FDD5A6" fill-rule="nonzero"/><path d="M11.195,17.18 C10.1651052,17.4705889 9.07489478,17.4705889 8.045,17.18 L8.09,16.745 L11.27,16.285 L11.195,17.18 Z" id="Shape" fill="#CDAD87" fill-rule="nonzero"/><path d="M11.65,17.765 C11.65,17.765 11.5,23.405 11.3,24.38 C11.3,24.38 7.87,24.935 6.13,23.92 C6.05311959,21.9161699 6.67727264,19.9482312 7.895,18.355 L11.65,17.765 Z" id="Shape" fill="#163860" fill-rule="nonzero"/><path d="M7.89,18.605 C6.98069901,20.2794536 6.45951307,22.1369261 6.365,24.04 L6.135,23.92 L6.41,20.95 L7.335,19.1 L7.835,18.405 L7.89,18.605 Z" id="Shape" fill="#0C233B" fill-rule="nonzero"/><polygon id="Shape" fill="#0C233B" fill-rule="nonzero" points="10.195 19.31 10.195 19.31 10.195 19.31 10.235 19.275 10.235 19.275 10.235 19.275"/><polygon id="Shape" fill="#0C233B" fill-rule="nonzero" points="9.5 20 9.5 20 9.465 20.04 9.465 20.04 9.465 20.04"/><polygon id="Shape" fill="#0C233B" fill-rule="nonzero" points="9.255 20.235 9.255 20.235 9.22 20.275 9.22 20.275 9.22 20.275"/><polygon id="Shape" fill="#0C233B" fill-rule="nonzero" points="9.405 20.08 9.37 20.12 9.37 20.12 9.37 20.12"/><polygon id="Shape" fill="#0C233B" fill-rule="nonzero" points="8.97 20.54 8.97 20.54 8.935 20.58 8.935 20.58 8.935 20.58 9 20.55 9 20.55"/><polygon id="Shape" fill="#0C233B" fill-rule="nonzero" points="9.04 20.465 9.04 20.465 9 20.5 9 20.5 9 20.5 9.035 20.46 9.035 20.46"/><polygon id="Shape" fill="#0C233B" fill-rule="nonzero" points="9.81 19.67 9.81 19.67 9.81 19.67 9.85 19.635 9.85 19.635 9.85 19.635"/><polygon id="Shape" fill="#0C233B" fill-rule="nonzero" points="9.925 19.56 9.885 19.595 9.885 19.595 9.885 19.595 9.925 19.56"/><polygon id="Shape" fill="#0C233B" fill-rule="nonzero" points="10.04 19.45 10.04 19.45 10.04 19.45 10.08 19.415 10.08 19.415 10.08 19.415"/><polygon id="Shape" fill="#0C233B" fill-rule="nonzero" points="9.775 19.705 9.74 19.74 9.74 19.74 9.74 19.74 9.775 19.705"/><polygon id="Shape" fill="#0C233B" fill-rule="nonzero" points="7.94 18.715 7.94 18.715 7.94 18.75 7.94 18.75"/><polygon id="Shape" fill="#0C233B" fill-rule="nonzero" points="8 19 8 19 8 19 8 19 8 19.05 8 19.05 8 19.05"/><polygon id="Shape" fill="#0C233B" fill-rule="nonzero" points="8 19.105 8 19.105 8 19.105 8 19.105 8 19.155 8 19.155 8 19.155"/><polygon id="Shape" fill="#0C233B" fill-rule="nonzero" points="8.19 19.71 8.19 19.71 8.19 19.76 8.19 19.76 8.19 19.76"/><polygon id="Shape" fill="#0C233B" fill-rule="nonzero" points="8.155 19.61 8.155 19.61 8.155 19.66 8.155 19.66 8.155 19.66"/><polygon id="Shape" fill="#0C233B" fill-rule="nonzero" points="8.265 19.91 8.265 19.91 8.265 19.96 8.265 19.96 8.265 19.96"/><polygon id="Shape" fill="#0C233B" fill-rule="nonzero" points="8.31 20 8.31 20 8.31 20.05 8.31 20.05 8.31 20.05"/><path d="M10.265,18.75 L9.44,19.665 L8.44,19.565 C8.32291515,19.046528 8.32291515,18.508472 8.44,17.99 L8.57,17.765 L10.345,17.965 L10.265,18.75 Z" id="Shape" fill="#DADBD9" fill-rule="nonzero"/><path d="M11.3,17.03 L11.86,17.03 L11.79,17.53 L10.455,19.85 L9.585,18.19 L9.39,18.045 L8.06,19.545 C7.92064754,19.1327797 7.85135475,18.7001223 7.855,18.265 C7.855,18.205 8.135,17.96 8.14,17.9 C8.18,17.595 7.86,17.53 8.085,17.4 C8.08,17.43 10,18.695 11.3,17.03 Z" id="Shape" fill="#FFF" fill-rule="nonzero"/><path d="M9.21,18.27 L8.425,19.46 C8.45272529,19.7960808 8.57977787,20.1163229 8.79,20.38 L9.635,19.445 L9.635,18.265 L9.21,18.27 Z" id="Shape" fill="#139AD6" fill-rule="nonzero"/><path d="M8.09,18.08 C8.09,18.08 5.59,21.865 6.41,24.91 C6.41,24.91 5.76,24.865 5.595,24.535 C5.43,24.205 5.92,20.675 8.035,17.995 L8.09,18.08 Z" id="Shape" fill="#845F3F" fill-rule="nonzero"/><polygon id="Shape" fill="#C1C0BE" fill-rule="nonzero" points="9.62 18.3 9.68 19.4 9.635 19.45"/><path d="M15.39,23.315 L15.39,23.35 C17.265,22.605 17.55,20.225 17.09,19.655 C16.745,19.23 16.725,19.35 15.95,17.62 C15.175,15.89 13.305,16.455 13.305,16.455 L11.765,16.93 C11.765,16.93 11.195,24.005 11.265,24.38 C11.335,24.755 11.795,26.085 12.895,26.56 C12.895,26.56 15.83,26.28 16.395,24.53 C15.971945,24.2067147 15.6282234,23.7911707 15.39,23.315 Z" id="Shape" fill="url(#linearGradient-5)" fill-rule="nonzero"/><path d="M15.57,23.285 C15.57,23.285 14.75,22.045 15.07,20.91 C15.07,20.91 14.475,21.805 15.39,23.36 L15.57,23.285 Z" id="Shape" fill="#5B4026" fill-rule="nonzero"/><path d="M12.34,24 C13.0594209,23.8239511 13.7582817,23.5725623 14.425,23.25 C14.425,23.25 14.59,23.59 14.64,23.7 C13.9770132,24.0857098 13.2534242,24.3562103 12.5,24.5 L12.34,24 Z" id="Shape" fill="#693521" fill-rule="nonzero"/><path d="M15.09,20.91 C14.6200281,20.4011735 14.3702147,19.7272165 14.395,19.035 C14.4966984,19.7007725 14.7331898,20.3387889 15.09,20.91 Z" id="Shape" fill="#5B4026" fill-rule="nonzero"/><path d="M12.265,17.375 C12.29809,18.06934 12.5268971,18.7401606 12.925,19.31 C12.5049401,19.4160362 12.1082176,19.5991389 11.755,19.85 L12.625,20.01 C12.2573931,21.1527029 11.8233198,22.2729459 11.325,23.365 L11.825,17.42 L12.265,17.375 Z" id="Shape" fill="#472A16" fill-rule="nonzero"/><path d="M12,17.065 C12.0085881,17.7684932 12.1998377,18.4576812 12.555,19.065 C12.555,19.065 11.815,19.445 11.665,19.825 L12.5,19.76 C11.979499,20.9114023 11.5887605,22.1171575 11.335,23.355 L11.59,17.355 L12,17.065 Z" id="Shape" fill="#693521" fill-rule="nonzero"/><path d="M8.395,19.245 C8.535,19.095 8.895,18.62 8.895,18.62 L8.395,19.19 C8.395,19.19 8.39,19.255 8.395,19.245 Z" id="Shape" fill="#C1C0BE" fill-rule="nonzero"/><polygon id="Shape" fill="#0C233B" fill-rule="nonzero" points="11.56 18 10.455 19.85 11.535 17.97"/><path d="M8.395,19.245 C8.31166003,19.3287896 8.22315341,19.4072766 8.13,19.48 L8.385,19.19 L8.395,19.245 Z" id="Shape" fill="#0C233B" fill-rule="nonzero"/><path d="M9.89,18.075 C9.89,18.245 9.675,18.385 9.39,18.385 C9.105,18.385 8.89,18.245 8.89,18.075 C8.89,17.795 9.105,17.765 9.39,17.765 C9.675,17.765 9.89,17.805 9.89,18.075 Z" id="Shape" fill="#139AD6" fill-rule="nonzero"/><ellipse id="Oval" fill="#5B4026" fill-rule="nonzero" cx="10.915" cy="16.375" rx="3.065" ry="1.14"/><path d="M5.77,14.945 C5.145,13.99 3.655,15.25 3.235,15.595 C2.815,15.94 3.395,14.595 3.915,14.41 C3.915,14.41 2.725,14.365 2.53,15.195 C2.44232439,14.6315566 2.65453423,14.0631373 3.09,13.695 C2.5503253,14.1227531 2.04847287,14.5961672 1.59,15.11 C1.63,14.84 1.695,14.53 1.695,14.53 L0.785,14.665 C0.785,14.665 0.545,12.34 2.125,11.915 C3.705,11.49 2.02,11.705 2.02,11.705 C2.02,11.705 1.52,10.865 0.145,11.205 C0.145,11.205 0.75,6.405 3.645,6.035 C3.49848885,5.48564335 2.96209393,5.13450933 2.4,5.22 C2.4,5.22 2.55,4.685 2.98,4.72 L2.175,4.27 C3.67122058,3.45792852 5.52845979,3.77159558 6.675,5.03 C6.675,5.03 7.39,1.82 7.38,1.39 C7.41946998,1.00872894 7.37684799,0.623426156 7.255,0.26 C7.255,0.26 8.22,0.44 8.23,0.875 C8.3145189,0.666220662 8.24900982,0.426703108 8.07,0.29 C8.07,0.29 9.725,0.96 9.57,1.745 L9.69,1.075 C9.69,1.075 10.19,1.33 10.225,1.645 C10.26,1.96 10.355,0.94 10.355,0.94 C10.355,0.94 12.03,1.565 12.13,4 C12.13,4 16.445,2.38 17.865,6.75 L16.77,6.55 C16.77,6.55 17.615,6.9 17.735,7.45 C17.735,7.45 19.065,7.81 19.065,11.095 C19.065,11.095 18.74,9.735 17.745,9.595 C17.745,9.595 19.205,10.22 19.29,13.29 C18.9942118,13.025597 18.6561949,12.8126463 18.29,12.66 C18.29,12.66 19.36,13.34 18.98,15.075 C18.98,15.075 18.795,14.635 17.98,14.55 L18.095,14.88 L17.445,14.565 C17.445,14.565 15.375,14.735 14.83,15.37 C14.83,15.37 14.75,14.545 14.095,14.965 L5.77,14.945 Z" id="Shape" fill="#F2F2F2" fill-rule="nonzero"/><path d="M15.4,13.5 C15.26,15.315 14.055,17.18 11.55,17.11 C11.05,17.11 10.51,17.23 9.96,17.185 C7.76,17.015 5.62,17.31 5.36,14.185 C5.34896245,14.1365103 5.33217708,14.0895113 5.31,14.045 C5.16677941,13.6205759 5.11065981,13.1716192 5.145,12.725 C5.315,10.475 7.86,8.775 10.695,8.99 C11.2056146,9.02660991 11.7095827,9.12740354 12.195,9.29 C14.21,9.97 15.54,11.67 15.4,13.5 Z" id="Shape" fill="#FDD5A6" fill-rule="nonzero"/><g id="Group" opacity=".5" style="mix-blend-mode:multiply" stroke-width="1" fill="none" fill-rule="evenodd" transform="translate(8.000000, 8.500000)"><path d="M0.465,0.71 C1.18966331,0.5065032 1.94508658,0.435364686 2.695,0.5 C3.20561458,0.536609913 3.70958273,0.637403544 4.195,0.8 C6.225,1.485 7.555,3.185 7.415,5.02 C7.35,5.85 6.755,8.52 3.77,8.65 C3.77,8.65 7.825,5.915 4.35,2.92 C3.20148732,1.95131748 1.88457119,1.20218372 0.465,0.71 L0.465,0.71 Z" id="Shape" fill="#FDD5A6" fill-rule="nonzero"/></g><path d="M7.89,13.125 C7.89,13.125 8.01,12.285 7.42,12.35 C7.55426514,12.4246031 7.61210452,12.5874103 7.555,12.73 C7.555,12.73 7.235,11.73 5.985,12.73 C5.985,12.73 6.4,12.58 6.55,12.665 C6.55,12.665 5.985,12.715 5.97,13.025 C5.97,13.025 6.205,12.96 6.28,13.025 C6.28,13.025 5.92,13.325 6.415,13.705 C6.41,13.72 7.245,13 7.89,13.125 Z" id="Shape" fill="#E8E7E6" fill-rule="nonzero"/><ellipse id="Oval" fill="#232221" fill-rule="nonzero" transform="translate(7.412539, 14.279635) rotate(-85.630000) translate(-7.412539, -14.279635)" cx="7.413" cy="14.28" rx="1" ry="1"/><ellipse id="Oval" fill="#232221" fill-rule="nonzero" transform="translate(11.466517, 14.276424) rotate(-85.630000) translate(-11.466517, -14.276424)" cx="11.467" cy="14.276" rx="1" ry="1"/><path d="M5.77,14.945 C5.77,14.945 5.675,11.945 6.41,11.945 C6.41,11.945 6.725,12.475 6.98,12.5 C7.025,12.5 6.98,11 7.845,10.645 C7.845,10.645 10.535,12.095 10.94,11.49 C10.85,11.42 9.86,10.905 9.94,10.455 C9.995,10.205 12.195,10.505 12.89,12.765 C13.04,12.875 13.34,12.505 13.47,11.92 C13.715,10.83 14.135,13.89 14.145,13.92 C14.155,13.95 14.39,13.885 14.61,13.635 C14.83,13.385 14.455,15.36 14.39,15.565 C14.89,15.22 15.305,15.065 15.51,13.565 C15.695,12.185 14.675,10.34 13.51,9.565 C12.59,9 10.455,8.5 7.78,9.28 C5.89851348,9.69494986 4.69002416,11.5331841 5.055,13.425 C5.14,14.21 5.755,14.72 5.77,14.945 Z" id="Shape" fill="#F2F2F2" fill-rule="nonzero"/><path d="M11.35,13.4 C11.8479301,13.3937879 12.333045,13.557845 12.725,13.865 C12.725,13.865 13.36,13.575 12.665,13.23 C12.7786013,13.1917105 12.9033868,13.2063911 13.005,13.27 C13.005,13.27 13.005,12.815 12.305,12.85 C12.4509245,12.7749922 12.6219418,12.7658955 12.775,12.825 C12.775,12.825 12.145,12.155 11.69,12.765 C11.7253649,12.6115334 11.830968,12.4836981 11.975,12.42 C11.745,12.42 10.975,12.36 11.055,13.365 L11.35,13.4 Z" id="Shape" fill="#E8E7E6" fill-rule="nonzero"/><path d="M5.765,14.46 C5.765,14.46 5.05,13.71 3.855,14.66 C3.855,14.66 5.565,14.325 5.77,14.945 L5.765,14.46 Z" id="Shape" fill="#E8E7E6" fill-rule="nonzero"/><path d="M2.67,13.465 C3.935,12.715 4.615,13.125 4.615,13.125 C3.91821778,13.0218906 3.25222907,13.4488065 3.055,14.125 C3.84705739,13.5557154 4.86362279,13.3996067 5.79,13.705 L5.825,13.3 L5.825,13.3 L5.875,12.885 C4.80522944,12.2882221 3.46277917,12.5311616 2.67,13.465 L2.67,13.465 Z" id="Shape" fill="#E8E7E6" fill-rule="nonzero"/><path d="M2.125,11.155 C2.125,11.155 4.73,9.82 6.41,11.96 C5.16150511,11.0936326 3.60279519,10.8008061 2.125,11.155 Z" id="Shape" fill="#E8E7E6" fill-rule="nonzero"/><path d="M16.405,14.23 C16.962056,14.0041736 17.5997334,14.1254497 18.035,14.54 C18.1,14.6 18.07,14.885 18.07,14.885 L17.42,14.57 C17.42,14.57 15.04,15.15 14.42,15.595 C14.9473431,14.9702881 15.6329357,14.4988352 16.405,14.23 L16.405,14.23 Z" id="Shape" fill="#E8E7E6" fill-rule="nonzero"/><path d="M19.29,13.29 C19.29,13.29 18.705,11.29 17.925,11.29 C17.925,11.295 19.105,10.795 19.29,13.29 Z" id="Shape" fill="#E8E7E6" fill-rule="nonzero"/><path d="M12.71,4.7 C12.71,4.7 16.31,3.7 17.865,6.77 C16.6267261,5.22622137 14.6720548,4.44131942 12.71,4.7 L12.71,4.7 Z" id="Shape" fill="#E8E7E6" fill-rule="nonzero"/><path d="M19.07,11.165 C19.07,11.165 18.985,8.115 17.545,7.955 C17.4866987,7.42659545 17.2292301,6.94026578 16.825,6.595 C16.825,6.595 17.63,6.905 17.74,7.475 C17.735,7.47 19.285,7.86 19.07,11.165 Z" id="Shape" fill="#E8E7E6" fill-rule="nonzero"/><path d="M12.22,4.905 C12.22,4.905 11.555,1.805 10.375,0.935 C10.375,0.935 12.135,1.57 12.13,4.015 L12.22,4.905 Z" id="Shape" fill="#E8E7E6" fill-rule="nonzero"/><path d="M3.105,4.25 C3.105,4.25 6.285,3.25 7.97,7.605 C6.94278824,5.80514377 5.15242363,4.570473 3.105,4.25 L3.105,4.25 Z" id="Shape" fill="#E8E7E6" fill-rule="nonzero"/><path d="M3.105,5.065 C3.105,5.065 4.235,4.93 4.605,6.355 C4.585,6.355 4.775,4.385 3.105,5.065 Z" id="Shape" fill="#E8E7E6" fill-rule="nonzero"/><path d="M0.185,11.165 C0.185,11.165 1.55,6.905 3.685,6.055 C3.685,6.055 0.95,6.085 0.185,11.165 Z" id="Shape" fill="#E8E7E6" fill-rule="nonzero"/><path d="M7.645,10.61 C6.705,10.27 4.46,9.11 4.92,7.69 C4.92,7.69 3.92,9.19 5.955,10.04 C5.955,10.04 4.76,9.705 4.275,10.08 C5.35880956,10.2479057 6.4139481,10.5659618 7.41,11.025 C7.52468117,10.8711972 7.67361774,10.7462275 7.845,10.66 L7.645,10.61 Z" id="Shape" fill="#E8E7E6" fill-rule="nonzero"/><path d="M10.94,11.5 C10.94,11.5 7.23,9.545 9.61,9.35 C9.61,9.355 5.395,8.795 10.94,11.5 Z" id="Shape" fill="#E8E7E6" fill-rule="nonzero"/><path d="M10.94,11.5 C10.94,11.5 10.73,12.165 8.255,10.865 C8.255,10.87 10.165,11.635 10.94,11.5 Z" id="Shape" fill="#E8E7E6" fill-rule="nonzero"/><path d="M7.265,0.26 C7.265,0.26 7.635,0.985 6.685,5.03 C6.685,5.03 9,1.5 7.265,0.26 Z" id="Shape" fill="#E8E7E6" fill-rule="nonzero"/><path d="M11.53,7.69 C11.53,7.69 12.905,6.325 14.07,6.855 C13.4688337,6.3049021 12.5979691,6.16532786 11.855,6.5 C12.1097864,6.29494786 12.3994049,6.13743607 12.71,6.035 C12.3489417,6.0137521 11.9875168,6.07001165 11.65,6.2 C11.65,6.2 11.15,4.815 8.435,5.465 C8.435,5.5 11.345,5.23 11.53,7.69 Z" id="Shape" fill="#E8E7E6" fill-rule="nonzero"/><path d="M8.155,17.39 L6.895,18.345 L6.855,18.745 L6.55,19 C6.55,19 6.09,21 6.18,21.445 C6.69320622,20.2198989 7.32452016,19.047698 8.065,17.945 C8.154531,17.7747013 8.18612612,17.5798647 8.155,17.39 L8.155,17.39 Z" id="Shape" fill="#693521" fill-rule="nonzero"/><path d="M11.155,5.03 C10.5,4.4 9.81,3.66 9.68,3.06 C9.62994702,2.71346473 9.62994702,2.36153527 9.68,2.015 C9.765,1.13 9.285,0.64 8.105,0.285 C8.105,0.285 9.105,0.785 9.13,2.785 C8.91036664,2.57216151 8.6651578,2.38741513 8.4,2.235 C9.05,2.705 8.83,3.235 9.075,3.62 C9.32,4.005 11.155,5.03 11.155,5.03 Z" id="Shape" fill="#E8E7E6" fill-rule="nonzero"/><path d="M8.63,15.47 C8.03,15.005 6.21,14.645 6.445,17.585 C6.445,17.585 6.57,17.12 6.86,17.145 C6.86,17.145 6.735,17.87 7.115,18.02 C7.115,18.02 7.295,17.3 7.59,17.46 C7.59,17.46 8.13,18.345 8.59,18.41 C8.59,18.41 8.465,17.785 8.78,17.775 L9.28,18.505 L9.745,17.69 C9.745,17.69 10.075,18.065 9.865,18.225 C10.1394192,18.2290678 10.3715495,18.0229708 10.4,17.75 C10.4,17.75 10.945,17.945 10.845,18.435 C11.1140398,18.2634099 11.2675526,17.9583033 11.245,17.64 L11.7,18.24 L11.83,17.27 C11.83,17.27 12.59,17.56 12.595,17.89 C12.7060684,17.3870033 12.5512701,16.862199 12.185,16.5 L12.945,16.635 C12.945,16.635 11.28,14.7 9.895,15.725 C9.685,15.865 9.42,16.085 8.63,15.47 Z" id="Shape" fill="#E8E7E6" fill-rule="nonzero"/><path d="M10.635,16.38 C10.635,16.38 12.54,16.42 12.635,17.815 C12.62,17.81 11.895,16.5 10.635,16.38 Z" id="Shape" fill="#DADBD9" fill-rule="nonzero"/><path d="M8.6,18.41 C8.6,18.41 8.57,17.035 9.1,16.675 C9.12,16.675 8,17.055 8.6,18.41 Z" id="Shape" fill="#DADBD9" fill-rule="nonzero"/><path d="M10.85,18.435 C10.85,18.435 11.16,17.495 10.63,17.175 C10.635,17.175 11.625,17.45 10.85,18.435 Z" id="Shape" fill="#DADBD9" fill-rule="nonzero"/><path d="M9.285,18.5 C9.285,18.5 9.785,17.465 9.66,17 C9.73654396,17.090168 9.78824572,17.1987417 9.81,17.315 C9.85738127,17.775129 9.6576464,18.2259592 9.285,18.5 Z" id="Shape" fill="#DADBD9" fill-rule="nonzero"/><path d="M9.545,16.555 C9.545,16.555 10.045,17.49 9.73,17.715 L9.73,17.855 C9.8399026,17.8814528 9.91927269,17.9771039 9.925,18.09 C10.1171135,17.548402 9.96759427,16.9444228 9.545,16.555 Z" id="Shape" fill="#DADBD9" fill-rule="nonzero"/><path d="M8.58,18.365 C8.58,18.365 7.755,17.115 8.42,16.54 C8.10183731,16.7633553 7.92825731,17.1404646 7.96550353,17.5274114 C8.00274974,17.9143582 8.24507482,18.2514339 8.6,18.41" id="Shape" fill="#DADBD9" fill-rule="nonzero"/><path d="M7.11,18 C7.11,18 7.41,17 7.875,16.965 C7.875,17 6.785,16.745 7.11,18 Z" id="Shape" fill="#DADBD9" fill-rule="nonzero"/><path d="M6.445,17.59 C6.58009338,17.2647425 6.90883489,17.0630606 7.26,17.09 L7.5,17 C7.28480685,16.8800687 7.02282452,16.8802607 6.80780738,17.0005073 C6.59279023,17.1207538 6.45547423,17.3438661 6.445,17.59 Z" id="Shape" fill="#DADBD9" fill-rule="nonzero"/><path d="M9.05,16.16 C9.05,16.16 7.17,14.4 6.63,16.585 C6.63,16.585 7.045,15.73 7.6,15.83 C7.6,15.83 7.305,15.945 7.305,16.21 C7.3,16.21 7.825,15.615 9.05,16.16 Z" id="Shape" fill="#DADBD9" fill-rule="nonzero"/><path d="M16.66,20.35 C16.7199256,20.7400317 16.8938915,21.1036204 17.16,21.395 C17.39,20.65 17.39,20.03 17.125,19.66 C17.04,19.535 16.87,19.36 16.715,19.13 C16.5796926,19.5229094 16.5605958,19.9465093 16.66,20.35 L16.66,20.35 Z" id="Shape" fill="#46423F" fill-rule="nonzero"/><path d="M14.395,19 C14.16,19.5 13.555,20.83 13.215,21.675 C12.9481074,22.4058234 13.0426726,23.2198263 13.47,23.87 C13.58,24.08 14.415,25.475 14.415,25.475 C13.709651,25.7747813 12.9557915,25.9441879 12.19,25.975 C12.3847666,26.2109973 12.6310866,26.3991584 12.91,26.525 C13.6525913,26.4663768 14.3780301,26.2714575 15.05,25.95 C15.6816538,25.6957502 16.1734406,25.1821062 16.4,24.54 C15.9728529,24.1717661 15.6110815,23.7339213 15.33,23.245 C15.0876518,22.7794736 14.9446315,22.2686871 14.91,21.745 C14.9131903,21.4638313 14.9744728,21.1863581 15.09,20.93 C14.7441262,20.3337097 14.5086875,19.6799015 14.395,19 Z" id="Shape" fill="url(#linearGradient-6)" fill-rule="nonzero" opacity=".2" style="mix-blend-mode:multiply"/><g id="Group" opacity=".2" style="mix-blend-mode:multiply" stroke-width="1" fill="none" fill-rule="evenodd" transform="translate(15.000000, 20.000000)"><path d="M2.15,1.39 C1.8916583,1.11097652 1.71821376,0.76408745 1.65,0.39 L1.65,0.39 C1.55765161,0.768403936 1.4373205,1.13942486 1.29,1.5 C0.895,2.175 0.49,2.4 0.165,2.4 C0.272875687,2.70988865 0.404949328,3.01081593 0.56,3.3 C0.9356415,3.09515999 1.27377941,2.82803104 1.56,2.51 C1.81315906,2.19152302 2.00476203,1.82866429 2.125,1.44 L2.15,1.39 Z" id="Shape" fill="url(#linearGradient-7)" fill-rule="nonzero"/></g><g id="Group" opacity=".1" style="mix-blend-mode:multiply" stroke-width="1" fill="none" fill-rule="evenodd" transform="translate(16.500000, 20.000000)"><path d="M0.16,0.35 C0.219925614,0.740031749 0.393891461,1.10362037 0.66,1.395 C0.821945399,0.94855298 0.861648228,0.466940402 0.775,0 C0.624490899,0.193566531 0.403285899,0.319455556 0.16,0.35 Z" id="Shape" fill="#46423F" fill-rule="nonzero"/></g><path d="M12.13,4 C12.13,4 16.445,2.38 17.865,6.75 L16.77,6.55 C16.77,6.55 17.615,6.9 17.735,7.45 C17.735,7.45 19.065,7.81 19.065,11.095 C19.065,11.095 18.74,9.735 17.745,9.595 C17.745,9.595 19.205,10.22 19.29,13.29 C18.9942118,13.025597 18.6561949,12.8126463 18.29,12.66 C18.29,12.66 19.36,13.34 18.98,15.075 C18.98,15.075 18.795,14.635 17.98,14.55 L18.095,14.88 L17.445,14.565 C17.445,14.565 15.19,15.095 14.445,15.59 C14.445,15.59 14.8,13.55 14.69,13.665 C14.35,14.005 14.19,13.945 14.19,13.945 C14.19,13.945 14.135,13.445 13.91,12.2 C13.7628774,11.584901 13.8634419,10.9366194 14.19,10.395 C14.47,10 16.69,9.325 15.995,7.745 C15.645,6.93 14.495,7.745 14.7,7.52 C16.505,5.83 14.405,7.145 14.1,6.845 C13.01,5.77 11.965,6.695 11.66,6.225 C11.355,5.755 12.615,4.38 12.13,4 Z" id="Shape" fill="#F6F7F7" fill-rule="nonzero" opacity=".8" style="mix-blend-mode:multiply"/><path d="M17.25,13.13 C17.52,12.845 17.18,11.295 17.18,11.295 C17.1476084,11.6678566 17.0772438,12.0364333 16.97,12.395 C16.834058,13.0195782 16.293659,13.4736777 15.655,13.5 L15.535,13.5 L14.675,13.65 L14.675,13.65 C14.7032525,13.7767784 14.7032525,13.9082216 14.675,14.035 C14.9358523,13.9411925 15.2055758,13.8741804 15.48,13.835 L15.61,13.835 C17.975,13.645 18.955,15.1 18.955,15.1 C18.9509873,14.1124458 18.2267616,13.2756573 17.25,13.13 Z" id="Shape" fill="#E8E7E6" fill-rule="nonzero"/><path d="M14.42,15.55 C14.455,15.42 14.52,15.095 14.58,14.75 C14.53,15.04 14.455,15.42 14.42,15.55 Z" id="Shape" fill="#E9E9EB" fill-rule="nonzero" opacity=".8" style="mix-blend-mode:multiply"/><path d="M18.05,10.375 C16.9375686,10.0057009 15.7146366,10.2076529 14.78,10.915 C14.3414904,11.2241971 14.0109836,11.663124 13.835,12.17 L13.835,12.235 L13.835,12.235 C15,9.74 17.44,10.21 18.05,10.375 Z" id="Shape" fill="#E8E7E6" fill-rule="nonzero"/><path d="M15.9,9.81 C16.168967,9.40479454 16.3401318,8.94264946 16.4,8.46 C16.64,7 15,7.425 15,7.425 C15,7.425 16.25,7.315 16.105,8.37 C15.96,9.425 14.13,10.43 14.13,10.43 C14.28,9.785 14.265,9.06 13.63,8.71 C13.63,8.71 14.1,9.88 13.315,11.885 C13.14,8.385 10.98,8.545 10.98,8.545 C12.8,8.98 13.085,12.045 13.095,12.395 C13.035,12.52 12.975,12.65 12.905,12.78 C12.905,12.78 13.19,13.125 13.63,11.705 L13.85,12.235 L13.85,12.235 C14.995,9.735 17.435,10.235 18.045,10.375 L18.185,10.415 C17.705,9.5 16.35,9.68 15.9,9.81 Z" id="Shape" fill="#E8E7E6" fill-rule="nonzero"/><path d="M18.275,12.66 C18.6411949,12.8126463 18.9792118,13.025597 19.275,13.29 C19.2602296,12.7858746 19.201676,12.2839864 19.1,11.79 C19.0105327,11.3735899 18.8641582,10.9714808 18.665,10.595 C18.459607,10.5090856 18.2492262,10.4356192 18.035,10.375 C17.425,10.21 14.98,9.735 13.84,12.235 L13.84,12.235 C14.005,12.89 14.15,13.92 14.155,13.945 C14.16,13.97 14.4,13.91 14.62,13.66 C14.6298068,13.65722 14.6401932,13.65722 14.65,13.66 L14.65,13.66 C14.6866156,13.9951108 14.6611914,14.3340997 14.575,14.66 L14.575,14.755 C14.515,15.1 14.45,15.425 14.415,15.555 L14.415,15.595 L14.455,15.57 C15.14,15.13 17.43,14.57 17.43,14.57 L18.08,14.885 C18.0981092,14.7807808 18.0981092,14.6742192 18.08,14.57 C18.3623402,14.5971409 18.6294595,14.7106229 18.845,14.895 C18.8983282,14.9525831 18.9468253,15.0144587 18.99,15.08 C19.35,13.34 18.275,12.66 18.275,12.66 Z" id="Shape" fill="#E9E9EB" fill-rule="nonzero" opacity=".65" style="mix-blend-mode:multiply"/><path d="M3.71,17.425 C3.625,17.255 3.745,17.845 4.075,17.99 C4.28077222,18.0703253 4.50922778,18.0703253 4.715,17.99 C4.30478756,17.9883141 3.92462427,17.7745905 3.71,17.425 Z" id="Shape" fill="#DCAD84" fill-rule="nonzero"/></g></g></g></g></g></svg>
