<?xml version="1.0" encoding="UTF-8"?>
<svg width="48px" height="48px" viewBox="0 0 48 48" version="1.1" xmlns="http://www.w3.org/2000/svg" xmlns:xlink="http://www.w3.org/1999/xlink">
    <!-- Generator: Sketch 46.2 (44496) - http://www.bohemiancoding.com/sketch -->
    <title>Group 4</title>
    <desc>Created with Sketch.</desc>
    <defs>
        <path d="M24,0 L44.0691573,0 L44.0691573,-1.42108547e-14 C46.2401018,-6.89690667e-15 48,1.75989821 48,3.93084266 L48,7.86168533 L48,27.9308427 L48,27.9308427 C48,39.0147322 39.0147322,48 27.9308427,48 L24,48 L24,48 C10.745166,48 1.623249e-15,37.254834 0,24 L0,24 L0,24 C-1.623249e-15,10.745166 10.745166,2.4348735e-15 24,0 Z" id="path-1"></path>
        <linearGradient x1="84.7355759%" y1="54.2808268%" x2="-6.87300511%" y2="21.320354%" id="linearGradient-3">
            <stop stop-color="#715034" offset="0%"></stop>
            <stop stop-color="#996733" offset="100%"></stop>
        </linearGradient>
        <linearGradient x1="92.3747687%" y1="57.92%" x2="-19.6293336%" y2="-13.9466667%" id="linearGradient-4">
            <stop stop-color="#715035" offset="0%"></stop>
            <stop stop-color="#986733" offset="100%"></stop>
        </linearGradient>
        <linearGradient x1="2758%" y1="4393%" x2="3961%" y2="4393%" id="linearGradient-5">
            <stop stop-color="#715035" offset="0%"></stop>
            <stop stop-color="#986733" offset="100%"></stop>
        </linearGradient>
        <linearGradient x1="2938%" y1="4659%" x2="3780%" y2="4659%" id="linearGradient-6">
            <stop stop-color="#715035" offset="0%"></stop>
            <stop stop-color="#986733" offset="100%"></stop>
        </linearGradient>
        <linearGradient x1="3531%" y1="4465%" x2="3930%" y2="4465%" id="linearGradient-7">
            <stop stop-color="#715035" offset="0%"></stop>
            <stop stop-color="#986733" offset="100%"></stop>
        </linearGradient>
    </defs>
    <g id="Page-1" stroke="none" stroke-width="1" fill="none" fill-rule="evenodd">
        <g id="Group-4">
            <rect id="Rectangle-path" fill="#032E61" fill-rule="nonzero" x="0" y="0" width="48" height="48" rx="6"></rect>
            <g id="Clipped">
                <mask id="mask-2" fill="white">
                    <use xlink:href="#path-1"></use>
                </mask>
                <g id="Rectangle-path"></g>
                <g id="Group" mask="url(#mask-2)">
                    <g transform="translate(5.000000, 1.000000)">
                        <path d="M11,35.14 C9.79,33.49 8.88,34.34 8.66,34.14 C8.26,33.81 7.89,33.41 7.12,32.79 C6.6,32.38 5.47,31.51 5.36,32.41 C5.25,33.31 6.88,34.57 6.71,34.87 L6.71,34.94 C6.47,34.94 6.09,34.94 6.01,35.22 L5.89,35.74 C5.84992784,35.9165239 5.90271854,36.1012914 6.03,36.23 C6.06444007,36.2603733 6.08416995,36.3040799 6.08416995,36.35 C6.08416995,36.3959201 6.06444007,36.4396267 6.03,36.47 C5.87526157,36.5504106 5.78440967,36.7163141 5.8,36.89 L5.8,37.47 C5.80421019,37.6571575 5.90684234,37.828211 6.07,37.92 C6.17769461,37.9775913 6.22160088,38.1093102 6.17,38.22 C6.11971633,38.3258525 6.09898497,38.4433301 6.11,38.56 C6.11302136,38.7752816 6.16427883,38.9871458 6.26,39.18 C7.05945166,40.2238069 8.26033383,40.8841107 9.57,41 C10.57,41 11.48,40 12,37.93 C12.1180954,37.6363319 12.188972,37.3258247 12.21,37.01 C12.25,36.5 11.41,35.65 11,35.14 Z" id="Shape" fill="#FDD5A6" fill-rule="nonzero"></path>
                        <path d="M8.7,34.16 C8.31,33.82 7.93,33.43 7.16,32.81 C6.64,32.4 5.51,31.53 5.4,32.43 C5.29,33.33 6.92,34.59 6.75,34.89 L6.75,34.96 L7.4,34.96 C7.38946778,34.9105546 7.38946778,34.8594454 7.4,34.81 C7.77350371,34.4900509 8.21993847,34.2668335 8.7,34.16 L8.7,34.16 Z" id="Shape" fill="#FDD5A6" fill-rule="nonzero" opacity="0.5" style="mix-blend-mode: multiply;"></path>
                        <path d="M9,36.07 C9.24848628,36.7070254 9.2973143,37.4045685 9.14,38.07 C9.09039383,38.5503999 8.84877057,38.9903707 8.47,39.29 C7.83318367,39.5362222 7.13923787,39.5952076 6.47,39.46 C6.8,40.09 8.8,41.1 9.72,41.4 C12.41,42.22 11.6,39.51 11.6,39.51 C11.6,39.51 10.23,39.19 10.08,37.97 C9.73,35.56 9.3,36.12 9,36.07 Z" id="Shape" fill="#FDD5A6" fill-rule="nonzero" opacity="0.59" style="mix-blend-mode: multiply;"></path>
                        <path d="M15,36.13 C14.1223149,36.5922526 13.110828,36.7337193 12.14,36.53 C12.14,36.53 12.59,39.53 8.14,40.96 C8.10053065,41.1063223 8.1340398,41.2626983 8.23,41.38 C9.58460584,41.9871012 10.9944192,42.4626202 12.44,42.8 L13.76,37.94 C13.76,37.94 15.66,35.76 15,36.13 Z" id="Shape" fill="url(#linearGradient-3)" fill-rule="nonzero"></path>
                        <g id="Group" opacity="0.2" style="mix-blend-mode: multiply;" stroke-width="1" fill="none" fill-rule="evenodd" transform="translate(8.000000, 39.000000)">
                            <path d="M5.71,0.83 L4.45,3.83 C3.00441924,3.49262021 1.59460584,3.0171012 0.24,2.41 C0.144039803,2.29269833 0.110530652,2.13632229 0.15,1.99 C0.856032699,1.78193154 1.52929324,1.475598 2.15,1.08 C3.31704893,1.51494951 4.61519384,1.42378765 5.71,0.83 L5.71,0.83 Z" id="Shape" fill="url(#linearGradient-4)" fill-rule="nonzero"></path>
                        </g>
                        <path d="M22.84,32.32 L22.99,33.72 C22.1292188,35.0751931 20.5906232,35.8444909 18.99,35.72 C17.93,35.64 16.52,35.24 16.41,34.72 C16.2963636,34.253487 16.2963636,33.766513 16.41,33.3 L22.84,32.32 Z" id="Shape" fill="#FDD5A6" fill-rule="nonzero"></path>
                        <path d="M22.39,34.36 C20.3302104,34.9411778 18.1497896,34.9411778 16.09,34.36 L16.18,33.49 L22.54,32.57 L22.39,34.36 Z" id="Shape" fill="#CDAD87" fill-rule="nonzero"></path>
                        <path d="M23.3,35.53 C23.3,35.53 23,46.81 22.6,48.76 C22.6,48.76 15.74,49.87 12.26,47.84 C12.1062392,43.8323398 13.3545453,39.8964625 15.79,36.71 L23.3,35.53 Z" id="Shape" fill="#163860" fill-rule="nonzero"></path>
                        <path d="M15.78,37.21 C13.961398,40.5589071 12.9190261,44.2738522 12.73,48.08 L12.27,47.84 L12.82,41.9 L14.67,38.2 L15.67,36.81 L15.78,37.21 Z" id="Shape" fill="#0C233B" fill-rule="nonzero"></path>
                        <polygon id="Shape" fill="#0C233B" fill-rule="nonzero" points="20.65 38.42 20.56 38.48 20.56 38.48 20.56 38.48 20.64 38.42 20.64 38.42 20.64 38.42"></polygon>
                        <polygon id="Shape" fill="#0C233B" fill-rule="nonzero" points="20.39 38.62 20.39 38.62 20.39 38.62 20.47 38.55 20.47 38.55 20.47 38.55"></polygon>
                        <polygon id="Shape" fill="#0C233B" fill-rule="nonzero" points="18.37 40.62 18.37 40.62 18.3 40.7 18.3 40.7 18.3 40.7"></polygon>
                        <polygon id="Shape" fill="#0C233B" fill-rule="nonzero" points="19 40 19 40 18.93 40.08 18.93 40.08 18.93 40.08"></polygon>
                        <polygon id="Shape" fill="#0C233B" fill-rule="nonzero" points="18.51 40.47 18.51 40.47 18.44 40.55 18.44 40.55 18.44 40.55"></polygon>
                        <polygon id="Shape" fill="#0C233B" fill-rule="nonzero" points="18.81 40.16 18.74 40.24 18.74 40.24 18.74 40.24"></polygon>
                        <polygon id="Shape" fill="#0C233B" fill-rule="nonzero" points="18.66 40.31 18.59 40.39 18.59 40.39 18.59 40.39"></polygon>
                        <polygon id="Shape" fill="#0C233B" fill-rule="nonzero" points="18.22 40.77 18.22 40.77 18.15 40.85 18.15 40.85 18.15 40.85"></polygon>
                        <polygon id="Shape" fill="#0C233B" fill-rule="nonzero" points="17.94 41.08 17.94 41.08 17.87 41.16 17.87 41.16 17.87 41.16 18 41.1 18 41.1"></polygon>
                        <polygon id="Shape" fill="#0C233B" fill-rule="nonzero" points="17.79 41.24 17.72 41.32 17.72 41.32 17.72 41.32"></polygon>
                        <polygon id="Shape" fill="#0C233B" fill-rule="nonzero" points="18.08 40.93 18.08 40.93 18 41 18 41 18 41 18.07 40.92 18.07 40.92"></polygon>
                        <polygon id="Shape" fill="#0C233B" fill-rule="nonzero" points="19.62 39.34 19.62 39.34 19.62 39.34 19.7 39.27 19.7 39.27 19.7 39.27"></polygon>
                        <polygon id="Shape" fill="#0C233B" fill-rule="nonzero" points="19.85 39.12 19.77 39.19 19.77 39.19 19.77 39.19 19.85 39.12"></polygon>
                        <polygon id="Shape" fill="#0C233B" fill-rule="nonzero" points="20.08 38.9 20.08 38.9 20.08 38.9 20.16 38.83 20.16 38.83 20.16 38.83"></polygon>
                        <polygon id="Shape" fill="#0C233B" fill-rule="nonzero" points="19.92 39 19.92 39 19.92 39 20 39 20 39 20 39"></polygon>
                        <polygon id="Shape" fill="#0C233B" fill-rule="nonzero" points="20.31 38.69 20.23 38.76 20.23 38.76 20.23 38.76 20.31 38.69"></polygon>
                        <polygon id="Shape" fill="#0C233B" fill-rule="nonzero" points="19.55 39.41 19.48 39.48 19.48 39.48 19.48 39.48 19.55 39.41"></polygon>
                        <polygon id="Shape" fill="#0C233B" fill-rule="nonzero" points="19.4 39.56 19.4 39.56 19.33 39.63 19.33 39.63 19.33 39.63"></polygon>
                        <polygon id="Shape" fill="#0C233B" fill-rule="nonzero" points="19.25 39.71 19.18 39.79 19.18 39.79 19.18 39.79"></polygon>
                        <polygon id="Shape" fill="#0C233B" fill-rule="nonzero" points="19.1 39.86 19.03 39.94 19.03 39.94 19.03 39.94"></polygon>
                        <polygon id="Shape" fill="#0C233B" fill-rule="nonzero" points="17.64 41.28 17.64 41.17 17.63 41.15 17.61 41.17 17.61 41.28 17.63 41.29"></polygon>
                        <polygon id="Shape" fill="#0C233B" fill-rule="nonzero" points="17.64 41.06 17.64 40.95 17.63 40.94 17.61 40.95 17.61 41.06 17.63 41.07"></polygon>
                        <polygon id="Shape" fill="#0C233B" fill-rule="nonzero" points="17.64 40.84 17.64 40.79 17.63 40.77 17.61 40.79 17.61 40.84 17.63 40.85"></polygon>
                        <polygon id="Shape" fill="#0C233B" fill-rule="nonzero" points="15.88 37.43 15.88 37.43 15.88 37.5 15.88 37.5"></polygon>
                        <polygon id="Shape" fill="#0C233B" fill-rule="nonzero" points="15.95 37.79 15.95 37.79 15.95 37.79 15.95 37.89 15.95 37.89 15.95 37.89"></polygon>
                        <polygon id="Shape" fill="#0C233B" fill-rule="nonzero" points="15.91 37.58 15.91 37.58 15.91 37.58 15.91 37.68 15.91 37.68 15.91 37.68"></polygon>
                        <polygon id="Shape" fill="#0C233B" fill-rule="nonzero" points="16.13 38.61 16.13 38.61 16.13 38.71 16.13 38.71 16.13 38.71"></polygon>
                        <polygon id="Shape" fill="#0C233B" fill-rule="nonzero" points="16 38 16 38 16 38 16 38 16 38.1 16 38.1 16 38.1"></polygon>
                        <polygon id="Shape" fill="#0C233B" fill-rule="nonzero" points="16.08 38.4 16.08 38.4 16.08 38.5 16.08 38.5 16.08 38.5"></polygon>
                        <polygon id="Shape" fill="#0C233B" fill-rule="nonzero" points="16 38.21 16 38.21 16 38.21 16 38.21 16 38.31 16 38.31 16 38.31"></polygon>
                        <polygon id="Shape" fill="#0C233B" fill-rule="nonzero" points="16.19 38.81 16.19 38.81 16.19 38.91 16.19 38.91 16.19 38.91"></polygon>
                        <polygon id="Shape" fill="#0C233B" fill-rule="nonzero" points="16.25 39 16.25 39 16.25 39.1 16.25 39.1 16.25 39.1"></polygon>
                        <polygon id="Shape" fill="#0C233B" fill-rule="nonzero" points="16.8 40.39 16.8 40.39 16.85 40.48 16.85 40.48 16.85 40.48"></polygon>
                        <polygon id="Shape" fill="#0C233B" fill-rule="nonzero" points="17 40.76 17 40.76 17.06 40.85 17.06 40.85 17.06 40.85"></polygon>
                        <polygon id="Shape" fill="#0C233B" fill-rule="nonzero" points="16.71 40.2 16.71 40.2 16.71 40.3 16.71 40.3 16.71 40.3 16.71 40.21"></polygon>
                        <polygon id="Shape" fill="#0C233B" fill-rule="nonzero" points="17.43 41.26 17.43 41.26 17.43 41.26 17.51 41.33 17.51 41.33 17.51 41.33"></polygon>
                        <polygon id="Shape" fill="#0C233B" fill-rule="nonzero" points="17.27 41.1 17.27 41.1 17.34 41.18 17.34 41.18 17.34 41.18"></polygon>
                        <polygon id="Shape" fill="#0C233B" fill-rule="nonzero" points="17.14 40.93 17.14 40.93 17.14 40.93 17.21 41.01 17.21 41.01 17.21 41.01 17.15 40.93"></polygon>
                        <polygon id="Shape" fill="#0C233B" fill-rule="nonzero" points="16.9 40.58 16.9 40.58 16.9 40.58 16.95 40.67 16.95 40.67 16.95 40.67"></polygon>
                        <polygon id="Shape" fill="#0C233B" fill-rule="nonzero" points="16.46 39.62 16.46 39.62 16.46 39.72 16.46 39.72 16.46 39.72"></polygon>
                        <polygon id="Shape" fill="#0C233B" fill-rule="nonzero" points="16.38 39.42 16.38 39.42 16.38 39.52 16.38 39.52 16.38 39.52"></polygon>
                        <polygon id="Shape" fill="#0C233B" fill-rule="nonzero" points="16.31 39.22 16.31 39.22 16.31 39.32 16.31 39.32 16.31 39.32"></polygon>
                        <polygon id="Shape" fill="#0C233B" fill-rule="nonzero" points="16.53 39.82 16.53 39.82 16.53 39.92 16.53 39.92 16.53 39.92"></polygon>
                        <polygon id="Shape" fill="#0C233B" fill-rule="nonzero" points="16.62 40 16.62 40 16.62 40.1 16.62 40.1 16.62 40.1"></polygon>
                        <path d="M20.53,37.5 L18.88,39.33 L16.88,39.13 C16.6458303,38.0930561 16.6458303,37.0169439 16.88,35.98 L17.14,35.53 L20.69,35.93 L20.53,37.5 Z" id="Shape" fill="#DADBD9" fill-rule="nonzero"></path>
                        <path d="M22.6,34.06 L23.72,34.06 L23.58,35.06 L20.91,39.7 L19.17,36.38 L18.78,36.09 L16.12,39.09 C15.8412951,38.2655594 15.7027095,37.4002446 15.71,36.53 C15.71,36.41 16.27,35.92 16.28,35.8 C16.36,35.19 15.72,35.06 16.17,34.8 C16.16,34.86 20,37.39 22.6,34.06 Z" id="Shape" fill="#FFFFFF" fill-rule="nonzero"></path>
                        <path d="M18.42,36.54 L16.85,38.92 C16.9054506,39.5921615 17.1595557,40.2326458 17.58,40.76 L19.27,38.89 L19.27,36.53 L18.42,36.54 Z" id="Shape" fill="#139AD6" fill-rule="nonzero"></path>
                        <path d="M18.24,36.82 C18.5196497,37.0591109 18.9185392,37.0989998 19.24,36.92 L19.24,36.64 L18.38,36.64 L18.24,36.82 Z" id="Shape" fill="#1980AF" fill-rule="nonzero"></path>
                        <path d="M16.18,36.16 C16.18,36.16 11.18,43.73 12.82,49.82 C12.82,49.82 11.52,49.73 11.19,49.07 C10.86,48.41 11.84,41.35 16.07,35.99 L16.18,36.16 Z" id="Shape" fill="#845F3F" fill-rule="nonzero"></path>
                        <polygon id="Shape" fill="#C1C0BE" fill-rule="nonzero" points="19.24 36.6 19.36 38.8 19.27 38.9"></polygon>
                        <path d="M30.78,46.63 L30.78,46.7 C34.53,45.21 35.1,40.45 34.18,39.31 C33.49,38.46 33.45,38.7 31.9,35.24 C30.35,31.78 26.61,32.91 26.61,32.91 L23.53,33.86 C23.53,33.86 22.39,48.01 22.53,48.76 C22.67,49.51 23.59,52.17 25.79,53.12 C25.79,53.12 31.66,52.56 32.79,49.06 C31.94389,48.4134295 31.2564468,47.5823414 30.78,46.63 Z" id="Shape" fill="url(#linearGradient-5)" fill-rule="nonzero"></path>
                        <path d="M31.14,46.57 C31.14,46.57 29.5,44.09 30.14,41.82 C30.14,41.82 28.95,43.61 30.78,46.72 L31.14,46.57 Z" id="Shape" fill="#5B4026" fill-rule="nonzero"></path>
                        <path d="M24.68,48 C26.1188418,47.6479022 27.5165635,47.1451246 28.85,46.5 C28.85,46.5 29.18,47.18 29.28,47.4 C27.9540264,48.1714196 26.5068485,48.7124207 25,49 L24.68,48 Z" id="Shape" fill="#693521" fill-rule="nonzero"></path>
                        <path d="M30.18,41.82 C29.2400561,40.802347 28.7404294,39.4544331 28.79,38.07 C28.9933968,39.401545 29.4663796,40.6775778 30.18,41.82 Z" id="Shape" fill="#5B4026" fill-rule="nonzero"></path>
                        <path d="M24.53,34.75 C24.59618,36.1386799 25.0537941,37.4803212 25.85,38.62 C25.0098803,38.8320725 24.2164353,39.1982779 23.51,39.7 L25.25,40.02 C24.5147862,42.3054057 23.6466396,44.5458919 22.65,46.73 L23.65,34.84 L24.53,34.75 Z" id="Shape" fill="#472A16" fill-rule="nonzero"></path>
                        <path d="M24,34.13 C24.0171761,35.5369864 24.3996755,36.9153623 25.11,38.13 C25.11,38.13 23.63,38.89 23.33,39.65 L25,39.52 C23.958998,41.8228046 23.1775211,44.2343149 22.67,46.71 L23.18,34.71 L24,34.13 Z" id="Shape" fill="#693521" fill-rule="nonzero"></path>
                        <path d="M16.79,38.49 C17.07,38.19 17.79,37.24 17.79,37.24 L16.79,38.38 C16.79,38.38 16.78,38.51 16.79,38.49 Z" id="Shape" fill="#C1C0BE" fill-rule="nonzero"></path>
                        <polygon id="Shape" fill="#0C233B" fill-rule="nonzero" points="23.12 36 20.91 39.7 23.07 35.94"></polygon>
                        <path d="M16.85,38.92 L16.93,38.8 C17.0116933,39.5032185 17.2326602,40.1831166 17.58,40.8 C17.58,40.8 17,40.39 16.85,38.92 Z" id="Shape" fill="#1980AF" fill-rule="nonzero"></path>
                        <path d="M16.79,38.49 C16.6233201,38.6575792 16.4463068,38.8145532 16.26,38.96 L16.77,38.38 L16.79,38.49 Z" id="Shape" fill="#0C233B" fill-rule="nonzero"></path>
                        <path d="M19.78,36.15 C19.78,36.49 19.35,36.77 18.78,36.77 C18.21,36.77 17.78,36.49 17.78,36.15 C17.78,35.59 18.21,35.53 18.78,35.53 C19.35,35.53 19.78,35.61 19.78,36.15 Z" id="Shape" fill="#139AD6" fill-rule="nonzero"></path>
                        <ellipse id="Oval" fill="#5B4026" fill-rule="nonzero" cx="21.83" cy="32.75" rx="6.13" ry="2.28"></ellipse>
                        <path d="M11.54,29.89 C10.29,27.98 7.31,30.5 6.47,31.19 C5.63,31.88 6.79,29.19 7.83,28.82 C7.83,28.82 5.45,28.73 5.06,30.39 C4.88464878,29.2631131 5.30906846,28.1262747 6.18,27.39 C5.1006506,28.2455062 4.09694574,29.1923344 3.18,30.22 C3.26,29.68 3.39,29.06 3.39,29.06 L1.57,29.33 C1.57,29.33 1.09,24.68 4.25,23.83 C7.41,22.98 4.04,23.41 4.04,23.41 C4.04,23.41 3.04,21.73 0.29,22.41 C0.29,22.41 1.5,12.81 7.29,12.07 C6.9969777,10.9712867 5.92418787,10.2690187 4.8,10.44 C4.8,10.44 5.1,9.37 5.96,9.44 L4.35,8.54 C7.34244117,6.91585703 11.0569196,7.54319116 13.35,10.06 C13.35,10.06 14.78,3.64 14.76,2.78 C14.83894,2.01745787 14.753696,1.24685231 14.51,0.52 C14.51,0.52 16.44,0.88 16.46,1.75 C16.6290378,1.33244132 16.4980196,0.853406215 16.14,0.58 C16.14,0.58 19.45,1.92 19.14,3.49 L19.38,2.15 C19.38,2.15 20.38,2.66 20.45,3.29 C20.52,3.92 20.71,1.88 20.71,1.88 C20.71,1.88 24.06,3.13 24.26,8 C24.26,8 32.89,4.76 35.73,13.5 L33.54,13.1 C33.54,13.1 35.23,13.8 35.47,14.9 C35.47,14.9 38.13,15.62 38.13,22.19 C38.13,22.19 37.48,19.47 35.49,19.19 C35.49,19.19 38.41,20.44 38.58,26.58 C37.9884236,26.051194 37.3123898,25.6252927 36.58,25.32 C36.58,25.32 38.72,26.68 37.96,30.15 C37.96,30.15 37.59,29.27 35.96,29.1 L36.19,29.76 L34.89,29.13 C34.89,29.13 30.75,29.47 29.66,30.74 C29.66,30.74 29.5,29.09 28.19,29.93 L11.54,29.89 Z" id="Shape" fill="#F2F2F2" fill-rule="nonzero"></path>
                        <path d="M30.8,27 C30.52,30.63 28.11,34.36 23.1,34.22 C22.1,34.22 21.02,34.46 19.92,34.37 C15.52,34.03 11.24,34.62 10.72,28.37 C10.6979249,28.2730206 10.6643542,28.1790225 10.62,28.09 C10.3335588,27.2411519 10.2213196,26.3432383 10.29,25.45 C10.63,20.95 15.72,17.55 21.39,17.98 C22.4112292,18.0532198 23.4191655,18.2548071 24.39,18.58 C28.42,19.94 31.08,23.34 30.8,27 Z" id="Shape" fill="#FDD5A6" fill-rule="nonzero"></path>
                        <g id="Group" opacity="0.5" style="mix-blend-mode: multiply;" stroke-width="1" fill="none" fill-rule="evenodd" transform="translate(16.000000, 17.000000)">
                            <path d="M0.93,1.42 C2.37932662,1.0130064 3.89017316,0.870729372 5.39,1 C6.41122916,1.07321983 7.41916546,1.27480709 8.39,1.6 C12.45,2.97 15.11,6.37 14.83,10.04 C14.7,11.7 13.51,17.04 7.54,17.3 C7.54,17.3 15.65,11.83 8.7,5.84 C6.40297465,3.90263496 3.76914239,2.40436744 0.93,1.42 L0.93,1.42 Z" id="Shape" fill="#FDD5A6" fill-rule="nonzero"></path>
                        </g>
                        <path d="M15.78,26.25 C15.78,26.25 16.02,24.57 14.84,24.7 C15.1085303,24.8492063 15.224209,25.1748206 15.11,25.46 C15.11,25.46 14.47,23.46 11.97,25.46 C11.97,25.46 12.8,25.16 13.1,25.33 C13.1,25.33 11.97,25.43 11.94,26.05 C11.94,26.05 12.41,25.92 12.56,26.05 C12.56,26.05 11.84,26.65 12.83,27.41 C12.82,27.44 14.49,26 15.78,26.25 Z" id="Shape" fill="#E8E7E6" fill-rule="nonzero"></path>
                        <ellipse id="Oval" fill="#232221" fill-rule="nonzero" transform="translate(14.825078, 28.559270) rotate(-85.630000) translate(-14.825078, -28.559270) " cx="14.8250776" cy="28.5592703" rx="1.26" ry="1"></ellipse>
                        <ellipse id="Oval" fill="#232221" fill-rule="nonzero" transform="translate(22.933035, 28.552848) rotate(-85.630000) translate(-22.933035, -28.552848) " cx="22.9330349" cy="28.5528478" rx="1.26" ry="1"></ellipse>
                        <path d="M11.54,29.89 C11.54,29.89 11.35,23.89 12.82,23.89 C12.82,23.89 13.45,24.95 13.96,25 C14.05,25 13.96,22 15.69,21.29 C15.69,21.29 21.07,24.19 21.88,22.98 C21.7,22.84 19.72,21.81 19.88,20.91 C19.99,20.41 24.39,21.01 25.78,25.53 C26.08,25.75 26.68,25.01 26.94,23.84 C27.43,21.66 28.27,27.78 28.29,27.84 C28.31,27.9 28.78,27.77 29.22,27.27 C29.66,26.77 28.91,30.72 28.78,31.13 C29.78,30.44 30.61,30.13 31.02,27.13 C31.39,24.37 29.35,20.68 27.02,19.13 C25.18,18 20.91,17 15.56,18.56 C11.797027,19.3898997 9.38004833,23.0663681 10.11,26.85 C10.28,28.42 11.51,29.44 11.54,29.89 Z" id="Shape" fill="#F2F2F2" fill-rule="nonzero"></path>
                        <path d="M22.7,26.8 C23.6958602,26.7875758 24.6660899,27.1156899 25.45,27.73 C25.45,27.73 26.72,27.15 25.33,26.46 C25.5572026,26.3834209 25.8067735,26.4127822 26.01,26.54 C26.01,26.54 26.01,25.63 24.61,25.7 C24.9018491,25.5499843 25.2438837,25.531791 25.55,25.65 C25.55,25.65 24.29,24.31 23.38,25.53 C23.4507297,25.2230669 23.661936,24.9673961 23.95,24.84 C23.49,24.84 21.95,24.72 22.11,26.73 L22.7,26.8 Z" id="Shape" fill="#E8E7E6" fill-rule="nonzero"></path>
                        <path d="M11.53,28.92 C11.53,28.92 10.1,27.42 7.71,29.32 C7.71,29.32 11.13,28.65 11.54,29.89 L11.53,28.92 Z" id="Shape" fill="#E8E7E6" fill-rule="nonzero"></path>
                        <path d="M5.34,26.93 C7.87,25.43 9.23,26.25 9.23,26.25 C7.83643556,26.0437813 6.50445815,26.8976129 6.11,28.25 C7.69411478,27.1114309 9.72724558,26.7992133 11.58,27.41 L11.65,26.6 L11.65,26.6 L11.75,25.77 C9.61045888,24.5764442 6.92555833,25.0623233 5.34,26.93 L5.34,26.93 Z" id="Shape" fill="#E8E7E6" fill-rule="nonzero"></path>
                        <path d="M4.25,22.31 C4.25,22.31 9.46,19.64 12.82,23.92 C10.3230102,22.1872652 7.20559039,21.6016123 4.25,22.31 Z" id="Shape" fill="#E8E7E6" fill-rule="nonzero"></path>
                        <path d="M32.81,28.46 C33.924112,28.0083472 35.1994669,28.2508994 36.07,29.08 C36.2,29.2 36.14,29.77 36.14,29.77 L34.84,29.14 C34.84,29.14 30.08,30.3 28.84,31.19 C29.8946861,29.9405762 31.2658714,28.9976705 32.81,28.46 L32.81,28.46 Z" id="Shape" fill="#E8E7E6" fill-rule="nonzero"></path>
                        <path d="M38.58,26.58 C38.58,26.58 37.41,22.58 35.85,22.58 C35.85,22.59 38.21,21.59 38.58,26.58 Z" id="Shape" fill="#E8E7E6" fill-rule="nonzero"></path>
                        <path d="M25.42,9.4 C25.42,9.4 32.62,7.4 35.73,13.54 C33.2534522,10.4524427 29.3441096,8.88263883 25.42,9.4 L25.42,9.4 Z" id="Shape" fill="#E8E7E6" fill-rule="nonzero"></path>
                        <path d="M38.14,22.33 C38.14,22.33 37.97,16.23 35.09,15.91 C34.9733974,14.8531909 34.4584601,13.8805316 33.65,13.19 C33.65,13.19 35.26,13.81 35.48,14.95 C35.47,14.94 38.57,15.72 38.14,22.33 Z" id="Shape" fill="#E8E7E6" fill-rule="nonzero"></path>
                        <path d="M24.44,9.81 C24.44,9.81 23.11,3.61 20.75,1.87 C20.75,1.87 24.27,3.14 24.26,8.03 L24.44,9.81 Z" id="Shape" fill="#E8E7E6" fill-rule="nonzero"></path>
                        <path d="M6.21,8.5 C6.21,8.5 12.57,6.5 15.94,15.21 C13.8855765,11.6102875 10.3048473,9.140946 6.21,8.5 L6.21,8.5 Z" id="Shape" fill="#E8E7E6" fill-rule="nonzero"></path>
                        <path d="M6.21,10.13 C6.21,10.13 8.47,9.86 9.21,12.71 C9.17,12.71 9.55,8.77 6.21,10.13 Z" id="Shape" fill="#E8E7E6" fill-rule="nonzero"></path>
                        <path d="M0.37,22.33 C0.37,22.33 3.1,13.81 7.37,12.11 C7.37,12.11 1.9,12.17 0.37,22.33 Z" id="Shape" fill="#E8E7E6" fill-rule="nonzero"></path>
                        <path d="M15.29,21.22 C13.41,20.54 8.92,18.22 9.84,15.38 C9.84,15.38 7.84,18.38 11.91,20.08 C11.91,20.08 9.52,19.41 8.55,20.16 C10.7176191,20.4958113 12.8278962,21.1319236 14.82,22.05 C15.0493623,21.7423945 15.3472355,21.492455 15.69,21.32 L15.29,21.22 Z" id="Shape" fill="#E8E7E6" fill-rule="nonzero"></path>
                        <path d="M21.88,23 C21.88,23 14.46,19.09 19.22,18.7 C19.22,18.71 10.79,17.59 21.88,23 Z" id="Shape" fill="#E8E7E6" fill-rule="nonzero"></path>
                        <path d="M21.88,23 C21.88,23 21.46,24.33 16.51,21.73 C16.51,21.74 20.33,23.27 21.88,23 Z" id="Shape" fill="#E8E7E6" fill-rule="nonzero"></path>
                        <path d="M14.53,0.52 C14.53,0.52 15.27,1.97 13.37,10.06 C13.37,10.06 18,3 14.53,0.52 Z" id="Shape" fill="#E8E7E6" fill-rule="nonzero"></path>
                        <path d="M23.06,15.38 C23.06,15.38 25.81,12.65 28.14,13.71 C26.9376675,12.6098042 25.1959383,12.3306557 23.71,13 C24.2195728,12.5898957 24.7988097,12.2748721 25.42,12.07 C24.6978835,12.0275042 23.9750335,12.1400233 23.3,12.4 C23.3,12.4 22.3,9.63 16.87,10.93 C16.87,11 22.69,10.46 23.06,15.38 Z" id="Shape" fill="#E8E7E6" fill-rule="nonzero"></path>
                        <path d="M16.31,34.78 L13.79,36.69 L13.71,37.49 L13.1,38 C13.1,38 12.18,42 12.36,42.89 C13.3864124,40.4397979 14.6490403,38.095396 16.13,35.89 C16.309062,35.5494026 16.3722522,35.1597294 16.31,34.78 L16.31,34.78 Z" id="Shape" fill="#693521" fill-rule="nonzero"></path>
                        <path d="M22.31,10.06 C21,8.8 19.62,7.32 19.36,6.12 C19.259894,5.42692946 19.259894,4.72307054 19.36,4.03 C19.53,2.26 18.57,1.28 16.21,0.57 C16.21,0.57 18.21,1.57 18.26,5.57 C17.8207333,5.14432303 17.3303156,4.77483026 16.8,4.47 C18.1,5.41 17.66,6.47 18.15,7.24 C18.64,8.01 22.31,10.06 22.31,10.06 Z" id="Shape" fill="#E8E7E6" fill-rule="nonzero"></path>
                        <path d="M17.26,30.94 C16.06,30.01 12.42,29.29 12.89,35.17 C12.89,35.17 13.14,34.24 13.72,34.29 C13.72,34.29 13.47,35.74 14.23,36.04 C14.23,36.04 14.59,34.6 15.18,34.92 C15.18,34.92 16.26,36.69 17.18,36.82 C17.18,36.82 16.93,35.57 17.56,35.55 L18.56,37.01 L19.49,35.38 C19.49,35.38 20.15,36.13 19.73,36.45 C20.2788385,36.4581355 20.7430991,36.0459415 20.8,35.5 C20.8,35.5 21.89,35.89 21.69,36.87 C22.2280797,36.5268199 22.5351053,35.9166065 22.49,35.28 L23.4,36.48 L23.66,34.54 C23.66,34.54 25.18,35.12 25.19,35.78 C25.4121369,34.7740065 25.1025401,33.7243981 24.37,33 L25.89,33.27 C25.89,33.27 22.56,29.4 19.79,31.45 C19.37,31.73 18.84,32.17 17.26,30.94 Z" id="Shape" fill="#E8E7E6" fill-rule="nonzero"></path>
                        <path d="M21.27,32.76 C21.27,32.76 25.08,32.84 25.27,35.63 C25.24,35.62 23.79,33 21.27,32.76 Z" id="Shape" fill="#DADBD9" fill-rule="nonzero"></path>
                        <path d="M17.2,36.82 C17.2,36.82 17.14,34.07 18.2,33.35 C18.24,33.35 16,34.11 17.2,36.82 Z" id="Shape" fill="#DADBD9" fill-rule="nonzero"></path>
                        <path d="M21.7,36.87 C21.7,36.87 22.32,34.99 21.26,34.35 C21.27,34.35 23.25,34.9 21.7,36.87 Z" id="Shape" fill="#DADBD9" fill-rule="nonzero"></path>
                        <path d="M18.57,37 C18.57,37 19.57,34.93 19.32,34 C19.4730879,34.180336 19.5764914,34.3974834 19.62,34.63 C19.7147625,35.5502581 19.3152928,36.4519183 18.57,37 Z" id="Shape" fill="#DADBD9" fill-rule="nonzero"></path>
                        <path d="M19.09,33.11 C19.09,33.11 20.09,34.98 19.46,35.43 L19.46,35.71 C19.6798052,35.7629055 19.8385454,35.9542078 19.85,36.18 C20.2342271,35.0968039 19.9351885,33.8888457 19.09,33.11 Z" id="Shape" fill="#DADBD9" fill-rule="nonzero"></path>
                        <path d="M17.16,36.73 C17.16,36.73 15.51,34.23 16.84,33.08 C16.2036746,33.5267106 15.8565146,34.2809293 15.9310071,35.0548229 C16.0054995,35.8287164 16.4901496,36.5028678 17.2,36.82" id="Shape" fill="#DADBD9" fill-rule="nonzero"></path>
                        <path d="M14.22,36 C14.22,36 14.82,34 15.75,33.93 C15.75,34 13.57,33.49 14.22,36 Z" id="Shape" fill="#DADBD9" fill-rule="nonzero"></path>
                        <path d="M12.89,35.18 C13.1601868,34.529485 13.8176698,34.1261212 14.52,34.18 L15,34 C14.5696137,33.7601374 14.045649,33.7605214 13.6156148,34.0010145 C13.1855805,34.2415076 12.9109485,34.6877322 12.89,35.18 Z" id="Shape" fill="#DADBD9" fill-rule="nonzero"></path>
                        <path d="M18.1,32.32 C18.1,32.32 14.34,28.8 13.26,33.17 C13.26,33.17 14.09,31.46 15.2,31.66 C15.2,31.66 14.61,31.89 14.61,32.42 C14.6,32.42 15.65,31.23 18.1,32.32 Z" id="Shape" fill="#DADBD9" fill-rule="nonzero"></path>
                        <path d="M19.46,32.07 C19.46,32.07 22.2,30.32 24.24,32.32 C24.24,32.32 22.77,31.28 19.46,32.07 Z" id="Shape" fill="#DADBD9" fill-rule="nonzero"></path>
                        <path d="M33.32,40.7 C33.4398512,41.4800635 33.7877829,42.2072407 34.32,42.79 C34.78,41.3 34.78,40.06 34.25,39.32 C34.08,39.07 33.74,38.72 33.43,38.26 C33.1593851,39.0458188 33.1211917,39.8930187 33.32,40.7 L33.32,40.7 Z" id="Shape" fill="#46423F" fill-rule="nonzero"></path>
                        <path d="M28.79,38 C28.32,39 27.11,41.66 26.43,43.35 C25.8962147,44.8116468 26.0853452,46.4396526 26.94,47.74 C27.16,48.16 28.83,50.95 28.83,50.95 C27.4193021,51.5495626 25.911583,51.8883758 24.38,51.95 C24.7695333,52.4219947 25.2621732,52.7983168 25.82,53.05 C27.3051826,52.9327535 28.7560601,52.5429149 30.1,51.9 C31.3633076,51.3915004 32.3468813,50.3642124 32.8,49.08 C31.9457057,48.3435322 31.222163,47.4678426 30.66,46.49 C30.1753035,45.5589472 29.889263,44.5373741 29.82,43.49 C29.8263807,42.9276626 29.9489455,42.3727162 30.18,41.86 C29.4882523,40.6674193 29.0173749,39.359803 28.79,38 Z" id="Shape" fill="url(#linearGradient-6)" fill-rule="nonzero" opacity="0.2" style="mix-blend-mode: multiply;"></path>
                        <g id="Group" opacity="0.2" style="mix-blend-mode: multiply;" stroke-width="1" fill="none" fill-rule="evenodd" transform="translate(30.000000, 40.000000)">
                            <path d="M4.3,2.78 C3.78331659,2.22195304 3.43642752,1.5281749 3.3,0.78 L3.3,0.78 C3.11530323,1.53680787 2.87464101,2.27884972 2.58,3 C1.79,4.35 0.98,4.8 0.33,4.8 C0.545751374,5.41977729 0.809898655,6.02163186 1.12,6.6 C1.871283,6.19031998 2.54755882,5.65606208 3.12,5.02 C3.62631812,4.38304604 4.00952407,3.65732858 4.25,2.88 L4.3,2.78 Z" id="Shape" fill="url(#linearGradient-7)" fill-rule="nonzero"></path>
                        </g>
                        <g id="Group" opacity="0.1" style="mix-blend-mode: multiply;" stroke-width="1" fill="none" fill-rule="evenodd" transform="translate(33.000000, 40.000000)">
                            <path d="M0.32,0.7 C0.439851228,1.4800635 0.787782922,2.20724074 1.32,2.79 C1.6438908,1.89710596 1.72329646,0.933880803 1.55,0 C1.2489818,0.387133063 0.806571797,0.638911112 0.32,0.7 Z" id="Shape" fill="#46423F" fill-rule="nonzero"></path>
                        </g>
                        <path d="M24.26,8 C24.26,8 32.89,4.76 35.73,13.5 L33.54,13.1 C33.54,13.1 35.23,13.8 35.47,14.9 C35.47,14.9 38.13,15.62 38.13,22.19 C38.13,22.19 37.48,19.47 35.49,19.19 C35.49,19.19 38.41,20.44 38.58,26.58 C37.9884236,26.051194 37.3123898,25.6252927 36.58,25.32 C36.58,25.32 38.72,26.68 37.96,30.15 C37.96,30.15 37.59,29.27 35.96,29.1 L36.19,29.76 L34.89,29.13 C34.89,29.13 30.38,30.19 28.89,31.18 C28.89,31.18 29.6,27.1 29.38,27.33 C28.7,28.01 28.38,27.89 28.38,27.89 C28.38,27.89 28.27,26.89 27.82,24.4 C27.5257548,23.1698021 27.7268838,21.8732388 28.38,20.79 C28.94,20 33.38,18.65 31.99,15.49 C31.29,13.86 28.99,15.49 29.4,15.04 C33.01,11.66 28.81,14.29 28.2,13.69 C26.02,11.54 23.93,13.39 23.32,12.45 C22.71,11.51 25.23,8.76 24.26,8 Z" id="Shape" fill="#F6F7F7" fill-rule="nonzero" opacity="0.8" style="mix-blend-mode: multiply;"></path>
                        <path d="M34.5,26.26 C35.04,25.69 34.36,22.59 34.36,22.59 C34.2952168,23.3357132 34.1544875,24.0728667 33.94,24.79 C33.6681159,26.0391564 32.587318,26.9473554 31.31,27 L31.07,27 L29.35,27.3 L29.35,27.3 C29.4065051,27.5535568 29.4065051,27.8164432 29.35,28.07 C29.8717046,27.8823849 30.4111515,27.7483609 30.96,27.67 L31.22,27.67 C35.95,27.29 37.91,30.2 37.91,30.2 C37.9019745,28.2248917 36.4535232,26.5513146 34.5,26.26 Z" id="Shape" fill="#E8E7E6" fill-rule="nonzero"></path>
                        <path d="M28.87,31.15 L28.82,31.15 L28.87,31.15 Z" id="Shape" fill="#E9E9EB" fill-rule="nonzero" opacity="0.8" style="mix-blend-mode: multiply;"></path>
                        <path d="M28.84,31.1 C28.91,30.84 29.04,30.19 29.16,29.5 C29.06,30.08 28.91,30.84 28.84,31.1 Z" id="Shape" fill="#E9E9EB" fill-rule="nonzero" opacity="0.8" style="mix-blend-mode: multiply;"></path>
                        <path d="M29.16,29.5 L29.16,29.31 L29.16,29.5 Z" id="Shape" fill="#F2F2F2" fill-rule="nonzero"></path>
                        <path d="M28.82,31.18 L28.82,31.1 L28.82,31.18 Z" id="Shape" fill="#F2F2F2" fill-rule="nonzero"></path>
                        <path d="M36.1,20.75 C33.8751372,20.0114017 31.4292732,20.4153059 29.56,21.83 C28.6829807,22.4483941 28.0219673,23.326248 27.67,24.34 L27.67,24.47 L27.67,24.47 C30,19.48 34.88,20.42 36.1,20.75 Z" id="Shape" fill="#E8E7E6" fill-rule="nonzero"></path>
                        <path d="M31.8,19.62 C32.337934,18.8095891 32.6802637,17.8852989 32.8,16.92 C33.28,14 30,14.85 30,14.85 C30,14.85 32.5,14.63 32.21,16.74 C31.92,18.85 28.26,20.86 28.26,20.86 C28.56,19.57 28.53,18.12 27.26,17.42 C27.26,17.42 28.2,19.76 26.63,23.77 C26.28,16.77 21.96,17.09 21.96,17.09 C25.6,17.96 26.17,24.09 26.19,24.79 C26.07,25.04 25.95,25.3 25.81,25.56 C25.81,25.56 26.38,26.25 27.26,23.41 L27.7,24.47 L27.7,24.47 C29.99,19.47 34.87,20.47 36.09,20.75 L36.37,20.83 C35.41,19 32.7,19.36 31.8,19.62 Z" id="Shape" fill="#E8E7E6" fill-rule="nonzero"></path>
                        <path d="M36.55,25.32 C37.2823898,25.6252927 37.9584236,26.051194 38.55,26.58 C38.5204591,25.5717492 38.4033519,24.5679729 38.2,23.58 C38.0210654,22.7471798 37.7283165,21.9429616 37.33,21.19 C36.9192141,21.0181712 36.4984524,20.8712385 36.07,20.75 C34.85,20.42 29.96,19.47 27.68,24.47 L27.68,24.47 C28.01,25.78 28.3,27.84 28.31,27.89 C28.32,27.94 28.8,27.82 29.24,27.32 C29.2596136,27.3144401 29.2803864,27.3144401 29.3,27.32 L29.3,27.32 C29.3732312,27.9902216 29.3223828,28.6681994 29.15,29.32 L29.15,29.51 C29.03,30.2 28.9,30.85 28.83,31.11 L28.83,31.19 L28.91,31.14 C30.28,30.26 34.86,29.14 34.86,29.14 L36.16,29.77 C36.1962184,29.5615616 36.1962184,29.3484384 36.16,29.14 C36.7246805,29.1942818 37.2589189,29.4212458 37.69,29.79 C37.7966564,29.9051662 37.8936506,30.0289175 37.98,30.16 C38.7,26.68 36.55,25.32 36.55,25.32 Z" id="Shape" fill="#E9E9EB" fill-rule="nonzero" opacity="0.65" style="mix-blend-mode: multiply;"></path>
                        <path d="M7.42,34.85 C7.25,34.51 7.49,35.69 8.15,35.98 C8.56154445,36.1406505 9.01845555,36.1406505 9.43,35.98 C8.60957512,35.9766283 7.84924853,35.549181 7.42,34.85 Z" id="Shape" fill="#DCAD84" fill-rule="nonzero"></path>
                    </g>
                </g>
            </g>
        </g>
    </g>
</svg>