<?xml version="1.0" encoding="UTF-8"?>
<svg width="120px" height="107px" viewBox="0 0 120 107" version="1.1" xmlns="http://www.w3.org/2000/svg" xmlns:xlink="http://www.w3.org/1999/xlink">
    <!-- Generator: Sketch 46.2 (44496) - http://www.bohemiancoding.com/sketch -->
    <title>einstein_empty_state</title>
    <desc>Created with Sketch.</desc>
    <defs></defs>
    <g id="Page-1" stroke="none" stroke-width="1" fill="none" fill-rule="evenodd">
        <g id="einstein_empty_state">
            <path d="M12.25,98.89 L119.47,98.89" id="Shape" stroke="#8CD3F8" stroke-linecap="round"></path>
            <path d="M9.14,98.98 L0.64,98.98" id="Shape" stroke="#8CD3F8" stroke-linecap="round"></path>
            <path d="M33.7,98.89 C41.28,95.23 41.22,88.19 41.22,88.19 C41.22,88.19 46.03,89.57 48.87,87.63 C48.87,87.63 45.98,94.13 43.87,98.98 L33.7,98.89 Z" id="Shape" stroke="#8CD3F8" fill="#FFFFFF" fill-rule="nonzero"></path>
            <path d="M75.52,106 C80.92,106.78 90.26,102.67 92.15,99.9 C92.2756732,99.7298442 92.3735564,99.5408283 92.44,99.34 C93.3,96.6 91.24,90.62 88.68,85.14 C87.086608,81.8054486 84.6234668,78.9622996 81.55,76.91 C81.55,76.91 79.44,79.91 70.61,81.72 C64.5761024,82.85426 58.4495809,83.4233904 52.31,83.42 C48.671777,88.0920343 45.8796244,93.3649722 44.06,99 L54.12,99 C54.12,99 57.93,94.35 69.47,93.82 C81.01,93.29 76.8,103.82 76.8,103.82 L75.52,106 Z" id="Shape" stroke="#8CD3F8" fill="#FFFFFF" fill-rule="nonzero"></path>
            <path d="M71.71,18.66 C71.71,18.66 92.35,10.92 99.15,31.83 L93.92,30.83 C93.92,30.83 97.92,32.51 98.54,35.15 C98.54,35.15 104.91,36.86 104.91,52.59 C104.91,52.59 103.35,46.08 98.6,45.3 C98.6,45.3 105.6,48.3 105.98,62.98 C104.540775,61.7130791 102.897591,60.6987676 101.12,59.98 C101.12,59.98 106.25,63.23 104.42,71.54 C104.42,71.54 103.53,69.43 99.58,69.02 L100.14,70.6 L97,69.13 C97,69.13 85.33,71 82.71,74 C82.71,74 84.33,64.29 83.79,64.83 C82.17,66.45 81.36,66.18 81.36,66.18 C81.36,66.18 81.1,63.76 80,57.83 C79.59,55.57 79.38,51.96 81.35,49.2 C82.7,47.31 93.21,44.08 89.98,36.53 C88.31,32.64 82.74,36.42 83.78,35.45 C92.41,27.36 82.36,33.65 80.91,32.23 C75.69,27.1 70.68,31.51 69.22,29.23 C67.76,26.95 74,20.4 71.71,18.66 Z" id="Shape" fill="#FFFFFF" fill-rule="nonzero"></path>
            <path d="M68.32,79.54 L70.91,79.54 L70.59,81.85 L64.38,92.65 L60.38,84.94 L59.47,84.26 L53.88,92.26 C53.88,92.26 51.98,87.67 52.4,84.51 C52.59,83.08 52.35,81.93 53.4,81.38 C53.36,81.41 62.28,87.29 68.32,79.54 Z" id="Shape" stroke="#8CD3F8" fill="#FFFFFF" fill-rule="nonzero"></path>
            <path d="M58.62,85.31 L55,90.84 C55,90.84 55.25,93.74 56.7,95.12 L60.63,90.79 L60.56,85.31 L58.62,85.31 Z" id="Shape" stroke="#8CD3F8" fill="#C2E8FF" fill-rule="nonzero" stroke-linecap="round" stroke-linejoin="round"></path>
            <path d="M44.06,99 C45.69,93.43 49.22,86.51 52.55,83.17 L53.42,84.42 C50.7575031,89.088286 48.4767417,93.9641659 46.6,99" id="Shape" stroke="#8CD3F8"></path>
            <path d="M75.71,106 C74.38,106.3 72.93,103.39 72.93,103.39 L76.78,101.76 C76.78,101.76 77,105.68 75.71,106 Z" id="Shape" stroke="#8CD3F8" fill="#C2E8FF" fill-rule="nonzero"></path>
            <path d="M68.77,93.88 C63.26,94.27 54.67,96.09 54.36,99.88 L54.36,99.88 L54.36,100 C54.13,102.06 61.71,104.88 67.66,105.3 C71.6,105.58 71.12,102.74 76.35,103.64 C77.1698959,102.551279 77.6437168,101.241304 77.71,99.88 C77.71,96.81 76.31,93.08 69.47,93.81 L68.77,93.88 Z" id="Shape" stroke="#8CD3F8" fill="#FFFFFF" fill-rule="nonzero"></path>
            <path d="M91.32,91.69 C89.3919536,94.0549745 88.1225057,96.8870852 87.64,99.9 C87.4598592,100.975845 87.4598592,102.074155 87.64,103.15 C87.64,103.15 91,102 92.23,99.9 C92.3456921,99.709767 92.4428065,99.5088407 92.52,99.3 C93.42,96.86 91.32,91.69 91.32,91.69 Z" id="Shape" stroke="#8CD3F8" fill="#C2E8FF" fill-rule="nonzero"></path>
            <path d="M69.64,93.79 C69.64,93.79 72.51,91.22 78.24,90.62 C78.688065,88.5033767 79.2760221,86.4188017 80,84.38" id="Shape" stroke="#8CD3F8" stroke-linecap="round" stroke-linejoin="round"></path>
            <path d="M84.86,72.62 C82.04,77.73 76.86,81.53 68.94,81.3 C66.48,81.23 63.94,81.86 61.33,81.66 C51.33,80.9 41.64,82.12 39.59,69.51 L38.2,58.26 L46.2,45.11 L62.7,45.11 L80,49.48 L87,58.26 L84.9,72.62" id="Shape" stroke="#8CD3F8" fill="#FFFFFF" fill-rule="nonzero"></path>
            <ellipse id="Oval" fill="#8CD3F8" fill-rule="nonzero" transform="translate(49.155710, 67.756085) rotate(-85.630000) translate(-49.155710, -67.756085) " cx="49.1557101" cy="67.7560849" rx="3.01" ry="2"></ellipse>
            <ellipse id="Oval" fill="#8CD3F8" fill-rule="nonzero" transform="translate(68.542407, 67.762427) rotate(-85.630000) translate(-68.542407, -67.762427) " cx="68.5424073" cy="67.7624267" rx="3.01" ry="2"></ellipse>
            <path d="M84.72,72.88 L83.65,74 C83.97,73 84.72,63.63 83.65,64.82 C82.58,66.01 81.48,66.4 81.43,66.18 C81.38,65.96 79.37,51.32 78.19,56.54 C77.56,59.33 76.14,61.12 75.41,60.54 C72.08,49.74 61.56,48.3 61.29,49.54 C60.81,51.69 65.56,54.17 65.99,54.54 C64.05,57.44 51.17,50.54 51.17,50.54 C47.12,52.27 47.25,59.44 47.02,59.42 C45.82,59.3 44.3,56.76 44.3,56.76 C40.83,56.6 40,70.75 40,70.75 C37,66.18 31.11,72.41 29.11,74.06 C27.11,75.71 29.87,69.32 32.36,68.4 C32.36,68.4 26.68,68.18 25.74,72.16 C25.3401952,69.4606798 26.3745331,66.7479108 28.47,65 C28.47,65 22.69,69.79 21.41,71.77 C21.6,70.49 21.91,69 21.91,69 L17.56,69.64 C17.56,69.64 16.4,58.55 24,56.51 C31.6,54.47 23.51,55.51 23.51,55.51 C23.51,55.51 21.21,51.51 14.51,53.16 C14.51,53.16 17.41,30.16 31.3,28.42 C31.3,28.42 29.98,23.42 25.14,24.42 C25.14,24.42 25.86,21.85 27.93,21.92 L24.06,19.87 C24.06,19.87 36,13 45.66,23.5 C45.66,23.5 49.09,8.13 49.04,6.08 C48.99,4.03 49.16,1.9 48.43,0.68 C48.43,0.68 53.04,1.53 53.08,3.68 C53.5071248,2.68029665 53.1928,1.51812226 52.32,0.87 C52.32,0.87 60.24,4.08 59.55,7.87 L60.13,4.66 C60.13,4.66 62.54,5.89 62.7,7.38 C62.86,8.87 63.31,4.01 63.31,4.01 C63.31,4.01 71.24,7.01 71.7,18.76 C71.7,18.76 92.34,11.02 99.14,31.93 L93.91,30.93 C93.91,30.93 97.91,32.61 98.53,35.25 C98.53,35.25 104.9,36.96 104.9,52.69 C104.9,52.69 103.34,46.18 98.59,45.4 C98.59,45.4 105.59,48.4 105.97,63.08 C104.530775,61.8130791 102.887591,60.7987676 101.11,60.08 C101.11,60.08 106.24,63.33 104.41,71.64 C104.41,71.64 103.52,69.53 99.57,69.12 L100.13,70.7 L97,69.13 C97,69.13 87.33,69.83 84.72,72.88 Z" id="Shape" stroke="#8CD3F8" fill="#C2E8FF" fill-rule="nonzero" stroke-linecap="round" stroke-linejoin="round"></path>
            <path d="M48.43,0.67 C48.8716671,1.65500461 49.0672828,2.73260639 49,3.81 C50.24,4.12 52.53,4.41 52.56,6.05 C52.56,6.05 53.25,4.47 52.31,3.82 C52.31,3.82 60.23,7.03 59.54,10.82 L60.12,7.61 C60.12,7.61 62.53,8.84 62.69,10.33 C62.85,11.82 63.3,6.96 63.3,6.96 C63.3,6.96 70.91,9.96 71.38,21.68 C71.38,21.68 90.09,14.82 97.87,31.68 L99.14,31.91 C92.34,11 71.7,18.74 71.7,18.74 C71.23,7.01 63.31,3.99 63.31,3.99 C63.31,3.99 62.85,8.85 62.7,7.36 C62.55,5.87 60.13,4.64 60.13,4.64 L59.55,7.85 C60.25,4.09 52.32,0.85 52.32,0.85 C53.1928,1.49812226 53.5071248,2.66029665 53.08,3.66 C53,1.53 48.43,0.67 48.43,0.67 Z" id="Shape" fill="#FFFFFF" fill-rule="nonzero"></path>
            <path d="M28.47,68 C28.47,68 27.21,69 25.74,70.36 C25.6850747,70.9468311 25.7052375,71.5382719 25.8,72.12 C25.9170027,71.6247494 26.1274324,71.1563736 26.42,70.74 C26.8960558,69.6885205 27.5956344,68.753474 28.47,68 L28.47,68 Z" id="Shape" fill="#FFFFFF" fill-rule="nonzero"></path>
            <path d="M95.5,30.7 L89.56,29.63 C89.56,29.63 97.96,35.56 98.56,38.19 C98.56,38.19 103.98,39.66 104.82,52.19 C104.89,52.44 104.93,52.59 104.93,52.59 C104.93,36.87 98.56,35.15 98.56,35.15 C98.5,35 95.57,30.86 95.5,30.7 Z" id="Shape" fill="#FFFFFF" fill-rule="nonzero"></path>
            <path d="M84.17,68.74 C84.1183223,70.5032365 83.9445732,72.260776 83.65,74 L84.06,73.57 C84.2035009,71.9642076 84.2402484,70.3506604 84.17,68.74 Z" id="Shape" fill="#FFFFFF" fill-rule="nonzero"></path>
            <path d="M104.9,54.91 C104.9,55.14 103.11,49.55 102.97,49.3 L102.97,49.3 C101.57,45.12 99.46,45.01 94.78,44.24 C94.78,44.24 104.56,50.9 105.78,62.85 L106,63 C105.94729,60.2698786 105.578158,57.5550791 104.9,54.91 Z" id="Shape" fill="#FFFFFF" fill-rule="nonzero"></path>
            <path d="M29.29,71.85 C28.39,73.51 28.09,74.96 29.16,74.07 C29.59,73.72 30.16,73.15 30.91,72.53 C31.2268011,72.1692782 31.5939028,71.8560629 32,71.6 L32.24,71.41 C31.240802,71.4163592 30.2475639,71.5645032 29.29,71.85 Z" id="Shape" fill="#FFFFFF" fill-rule="nonzero"></path>
            <path d="M32.22,31.17 C32.5053385,30.1555484 32.2610415,29.0656079 31.57,28.27 C16.67,32 14.52,53.15 14.52,53.15 L15.08,53.03 C16.44,46.69 21.53,32.53 32.22,31.17 Z" id="Shape" fill="#FFFFFF" fill-rule="nonzero"></path>
            <path d="M24,59.51 C31.58,57.51 27.22,55.41 27.22,55.41 C27.22,55.41 23.41,56.69 22.29,57.2 C16.96,60.14 17.49,68.56 17.58,69.57 C17.79,66.12 19,60.85 24,59.51 Z" id="Shape" fill="#FFFFFF" fill-rule="nonzero"></path>
            <path d="M98.37,58.82 C98.37,58.82 104.17,64.97 104.72,69.69 C104.93,67.69 103.07,61.69 102.66,60.33 C101.357067,59.520175 99.8929216,59.004823 98.37,58.82 Z" id="Shape" fill="#FFFFFF" fill-rule="nonzero"></path>
            <path d="M26.78,24.31 L25.48,23.62 C25.3418296,23.8754143 25.2279947,24.1432611 25.14,24.42 C25.6787472,24.3062015 26.2308812,24.2691682 26.78,24.31 L26.78,24.31 Z" id="Shape" fill="#FFFFFF" fill-rule="nonzero"></path>
            <path d="M45.53,26.35 C45.53,26.35 46.46,19.87 48.64,9.07 C48.84981,8.26227763 48.9705297,7.43400669 49,6.6 C48.67,9.96 45.65,23.5 45.65,23.5 C36,13 24.07,19.87 24.07,19.87 L27.25,21.56 C31.46,20.25 39,19.2 45.53,26.35 Z" id="Shape" fill="#FFFFFF" fill-rule="nonzero"></path>
            <path d="M55,73.47 C52.12,71.24 43.43,69.53 44.54,83.6 C44.54,83.6 45.13,81.39 46.54,81.49 C46.54,81.49 45.95,84.95 47.76,85.69 C47.76,85.69 48.63,82.24 50.02,83.01 C50.02,83.01 52.61,87.25 54.89,87.55 C54.89,87.55 54.3,84.55 55.8,84.55 L58.09,88 L60.33,84.11 C60.33,84.11 61.92,85.9 60.9,86.68 C62.2149623,86.7073369 63.3298033,85.7187865 63.46,84.41 C63.46,84.41 66.07,85.34 65.59,87.68 C66.8782837,86.85735 67.6116512,85.3944546 67.5,83.87 L69.69,86.73 L70.31,82.09 C70.31,82.09 73.94,83.48 73.98,85.09 C74.5324119,82.6513967 73.7745362,80.1011448 71.98,78.36 L75.62,79.01 C75.62,79.01 67.62,69.75 61.03,74.67 C60,75.36 58.73,76.39 55,73.47 Z" id="Shape" stroke="#8CD3F8" fill="#C2E8FF" fill-rule="nonzero" stroke-linecap="round" stroke-linejoin="round"></path>
            <path d="M55,76.47 C58.73,79.39 60,78.36 61,77.6 C65.26,74.43 70.08,77.14 73,79.48 C72.7157557,79.0475668 72.3799552,78.6513223 72,78.3 L75.64,78.95 C75.64,78.95 67.64,69.69 61.05,74.61 C60.05,75.36 58.76,76.4 54.99,73.47 C52.17,71.28 43.76,69.61 44.48,82.8 C45.09,72.88 52.37,74.46 55,76.47 Z" id="Shape" fill="#FFFFFF" fill-rule="nonzero"></path>
            <path d="M51.42,62.24 C51.42,62.24 51.99,58.24 49.16,58.54 C49.7995578,58.8952595 50.07743,59.6690266 49.81,60.35 C49.81,60.35 48.27,55.66 42.29,60.35 C42.29,60.35 44.29,59.62 44.99,60.04 C44.99,60.04 42.3,60.27 42.22,61.76 C42.22,61.76 43.35,61.45 43.71,61.84 C43.71,61.84 41.99,63.28 44.35,65.1 C44.34,65.08 48.33,61.56 51.42,62.24 Z" id="Shape" stroke="#8CD3F8" fill="#C2E8FF" fill-rule="nonzero" stroke-linecap="round" stroke-linejoin="round"></path>
            <path d="M68,63.55 C68,63.55 72.55,63.55 74.59,65.77 C74.59,65.77 77.59,64.37 74.29,62.77 C74.8329177,62.5832759 75.430907,62.6493115 75.92,62.95 C75.92,62.95 75.99,60.77 72.56,60.95 C73.2542277,60.5901757 74.068808,60.542901 74.8,60.82 C74.8,60.82 71.8,57.6 69.61,60.54 C69.7847607,59.8042674 70.290773,59.1911429 70.98,58.88 C69.89,58.81 66.26,58.58 66.59,63.41 L68,63.55 Z" id="Shape" stroke="#8CD3F8" fill="#C2E8FF" fill-rule="nonzero" stroke-linecap="round" stroke-linejoin="round"></path>
            <path d="M84.72,72.88 L83.65,74 C83.97,73 84.72,63.63 83.65,64.82 C82.58,66.01 81.48,66.4 81.43,66.18 C81.38,65.96 79.37,51.32 78.19,56.54 C77.56,59.33 76.14,61.12 75.41,60.54 C72.08,49.74 61.56,48.3 61.29,49.54 C60.81,51.69 65.56,54.17 65.99,54.54 C64.05,57.44 51.17,50.54 51.17,50.54 C47.12,52.27 47.25,59.44 47.02,59.42 C45.82,59.3 44.3,56.76 44.3,56.76 C40.83,56.6 40,70.75 40,70.75 C37,66.18 31.11,72.41 29.11,74.06 C27.11,75.71 29.87,69.32 32.36,68.4 C32.36,68.4 26.68,68.18 25.74,72.16 C25.3401952,69.4606798 26.3745331,66.7479108 28.47,65 C28.47,65 22.69,69.79 21.41,71.77 C21.6,70.49 21.91,69 21.91,69 L17.56,69.64 C17.56,69.64 16.4,58.55 24,56.51 C31.6,54.47 23.51,55.51 23.51,55.51 C23.51,55.51 21.21,51.51 14.51,53.16 C14.51,53.16 17.41,30.16 31.3,28.42 C31.3,28.42 29.98,23.42 25.14,24.42 C25.14,24.42 25.86,21.85 27.93,21.92 L24.06,19.87 C24.06,19.87 36,13 45.66,23.5 C45.66,23.5 49.09,8.13 49.04,6.08 C48.99,4.03 49.16,1.9 48.43,0.68 C48.43,0.68 53.04,1.53 53.08,3.68 C53.5071248,2.68029665 53.1928,1.51812226 52.32,0.87 C52.32,0.87 60.24,4.08 59.55,7.87 L60.13,4.66 C60.13,4.66 62.54,5.89 62.7,7.38 C62.86,8.87 63.31,4.01 63.31,4.01 C63.31,4.01 71.24,7.01 71.7,18.76 C71.7,18.76 92.34,11.02 99.14,31.93 L93.91,30.93 C93.91,30.93 97.91,32.61 98.53,35.25 C98.53,35.25 104.9,36.96 104.9,52.69 C104.9,52.69 103.34,46.18 98.59,45.4 C98.59,45.4 105.59,48.4 105.97,63.08 C104.530775,61.8130791 102.887591,60.7987676 101.11,60.08 C101.11,60.08 106.24,63.33 104.41,71.64 C104.41,71.64 103.52,69.53 99.57,69.12 L100.13,70.7 L97,69.13 C97,69.13 87.33,69.83 84.72,72.88 Z" id="Shape" stroke="#8CD3F8" stroke-linecap="round" stroke-linejoin="round"></path>
            <path d="M55,73.47 C52.12,71.24 43.43,69.53 44.54,83.6 C44.54,83.6 45.13,81.39 46.54,81.49 C46.54,81.49 45.95,84.95 47.76,85.69 C47.76,85.69 48.63,82.24 50.02,83.01 C50.02,83.01 52.61,87.25 54.89,87.55 C54.89,87.55 54.3,84.55 55.8,84.55 L58.09,88 L60.33,84.11 C60.33,84.11 61.92,85.9 60.9,86.68 C62.2149623,86.7073369 63.3298033,85.7187865 63.46,84.41 C63.46,84.41 66.07,85.34 65.59,87.68 C66.8782837,86.85735 67.6116512,85.3944546 67.5,83.87 L69.69,86.73 L70.31,82.09 C70.31,82.09 73.94,83.48 73.98,85.09 C74.5324119,82.6513967 73.7745362,80.1011448 71.98,78.36 L75.62,79.01 C75.62,79.01 67.62,69.75 61.03,74.67 C60,75.36 58.73,76.39 55,73.47 Z" id="Shape" stroke="#8CD3F8" stroke-linecap="round" stroke-linejoin="round"></path>
            <path d="M31.57,98.89 C28.81,97.76 26.43,95.5 26.13,94.78 C25.8766911,94.2768947 25.7399735,93.7231882 25.73,93.16 C25.7007155,92.8585419 25.752501,92.5547337 25.88,92.28 C26.0157473,91.9917862 25.9068425,91.6476474 25.63,91.49 C25.2014258,91.2497845 24.9314962,90.8011692 24.92,90.31 L24.92,88.81 C24.8854002,88.3622688 25.1215718,87.9371601 25.52,87.73 C25.6199841,87.6608502 25.6851017,87.5517707 25.6985265,87.4309474 C25.7119513,87.310124 25.6723662,87.1894109 25.59,87.1 C25.262389,86.7611066 25.13041,86.2784405 25.24,85.82 L25.55,84.46 C25.77,83.78 26.75,83.67 27.38,83.72 C27.4059055,83.654807 27.4359672,83.5913433 27.47,83.53 C27.93,82.74 23.66,79.65 23.96,77.1 C24.24,74.75 27.2,77.01 28.54,78.1 C30.54,79.72 31.54,80.76 32.54,81.63 C33.11,82.11 35.54,79.91 38.64,84.21 C39.6732516,85.4252937 40.5439005,86.7699253 41.23,88.21 C40.9221945,92.90254 38.0208351,97.0308041 33.71,98.91 L31.57,98.89 Z" id="Shape" stroke="#8CD3F8" fill="#FFFFFF" fill-rule="nonzero"></path>
            <path d="M29.22,83.79 C29.1481298,83.5878813 29.1701271,83.3642423 29.28,83.18 C29.55,82.84 30.39,82.42 32.62,81.71 C31.62,80.82 30.51,79.71 28.5,78.08 C27.16,77 24.19,74.74 23.92,77.08 C23.62,79.62 27.92,82.72 27.43,83.51 C27.3959672,83.5713433 27.3659055,83.634807 27.34,83.7" id="Shape" stroke="#8CD3F8"></path>
            <path d="M29.18,83.42 C29.1645128,84.7105398 29.9141339,85.8879551 31.09,86.42 C32.1514391,86.87082 33.3434912,86.9065102 34.43,86.52" id="Shape" stroke="#8CD3F8" stroke-linecap="round"></path>
        </g>
    </g>
</svg>