<svg height="264" viewBox="0 0 470 264" width="470" xmlns="http://www.w3.org/2000/svg"><g fill="none" fill-rule="evenodd" transform="translate(2 -17)"><g transform="translate(33 115)"><g stroke="#c2e8ff" stroke-linecap="round" stroke-linejoin="round" stroke-width="3"><path d="m21 74 90.5-74 70 54"/><path d="m111.5 2v72"/><path d="m181.5 21v33c0-.5295031 0-11.5295031 0-33z"/><path d="m160 37 21.5-18 67.5 55"/></g><path d="m5.83623454 54.8238008c.64272991-2.1118269 1.68418433-2.1138531 2.32753092 0l5.83623454 19.1761992h-14z" fill="#c2e8ff"/><path d="m14.9699006 61.8628727c.5689082-2.1334057 1.4928579-2.1275284 2.0601988 0l2.9699006 11.1371273h-8z" fill="#c2e8ff"/><path d="m205.734375 28.796875c.698985-2.0969562 1.772567-2.0732705 2.393957.0394538l3.871668 13.1636712-9-5z" fill="#c2e8ff"/></g><g transform="matrix(-1 0 0 1 449 151)"><path d="m5.9215907 18.8514618c.59558901-2.1271036 1.55954765-2.1331106 2.1568186 0l5.9215907 21.1485382h-14z" fill="#c2e8ff" transform="matrix(-1 0 0 1 14 0)"/><path d="m118.136984 21.2363093c.476631-1.7873643 1.248966-1.7889982 1.726453.0015777l1.830319 6.8636998-6.693756 4.8984132z" fill="#c2e8ff" transform="matrix(-1 0 0 1 236.693756 0)"/><g stroke="#c2e8ff" stroke-linecap="round" stroke-linejoin="round" stroke-width="3"><path d="m13 37 46.5-37 33 27"/><path d="m59.5 1v37"/><path d="m92.5 11v15c0-.2562112 0-5.2562112 0-15z"/><path d="m83 17 9.5-8 34.5 29"/></g></g><g stroke="#8cd3f8" stroke-linecap="round" stroke-width="3" transform="translate(0 188)"><path d="m16 1.5h450"/><path d="m310 2 135 59"/><path d="m308 2-217 89"/><path d="m0 1.5h6"/></g><path d="m20.9057617.72998047 3.7246094 1.61035156 2.4624023 6.81494141-16.0463867 10.72167966h-10.91552732z" fill="#fff" transform="translate(96 130)"/><g stroke="#c2e8ff" stroke-linecap="round" stroke-width="3" transform="translate(17 109)"><path d="m44 17.5h19c-.7210286-5.4276029 1.081543-9.96813022 5.4077148-13.62158203 4.9677735-4.07397461 10.8657227-3.16064453 14.0332032-1.75488281 3.1674804 1.40576171 5.5197754 3.3371582 7.1503906 6.98170525.690918 1.53449469 1.1604818 2.83274789 1.4086914 3.89475959"/><path d="m83 20.5c1.0558268-3.6538086 3.2227376-6.0427246 6.5007324-7.166748 4.9169922-1.6860352 9.5793457.5593261 11.4416506 2.8186035 1.862304 2.2592773 2.452637 4.0742187 2.804199 5.9682617.234375 1.2626953.318848 2.7226562.253418 4.3798828 4.141764-.1686198 6.918945.6647135 8.331543 2.5 1.708496 2.1936035 1.883789 4.817627 1.261475 6.75-.622315 1.932373-2.698487 4.75-6.593018 4.75h-79"/><path d="m18 27.5h65.0004985"/><path d="m0 27.5h8"/></g><g stroke="#c2e8ff" stroke-linecap="round" stroke-width="3" transform="translate(168 77)"><path d="m44 17.5h19c-.7210286-5.4276029 1.081543-9.96813022 5.4077148-13.62158203 4.9677735-4.07397461 10.8657227-3.16064453 14.0332032-1.75488281 3.1674804 1.40576171 5.5197754 3.3371582 7.1503906 6.98170525.690918 1.53449469 1.1604818 2.83274789 1.4086914 3.89475959"/><path d="m83 20.5c1.0558268-3.6538086 3.2227376-6.0427246 6.5007324-7.166748 4.9169922-1.6860352 9.5793457.5593261 11.4416506 2.8186035 1.862304 2.2592773 2.452637 4.0742187 2.804199 5.9682617.234375 1.2626953.318848 2.7226562.253418 4.3798828 4.141764-.1686198 6.918945.6647135 8.331543 2.5 1.708496 2.1936035 1.883789 4.817627 1.261475 6.75-.622315 1.932373-2.698487 4.75-6.593018 4.75h-79"/><path d="m18 27.5h65.0004985"/><path d="m0 27.5h8"/></g><path d="m18.9209988 1.95433401 14.3382972 49.48910199c.3073818 1.0609384-.3034965 2.170181-1.3644348 2.4775628-.1808769.0524048-.3682486.0790012-.556564.0790012h-28.6765944c-1.1045695 0-1.99999999-.8954305-1.99999999-2 0-.1883154.02659637-.3756871.07900116-.556564l14.33829723-49.48910199c.3073818-1.06093836 1.4166244-1.67181665 2.4775628-1.36443485.6586462.19082718 1.1736077.70578861 1.3644348 1.36443485z" fill="#c2e8ff" transform="translate(157.5 169.5)"/><g stroke="#8cd3f8" stroke-linecap="round" stroke-linejoin="round" stroke-width="3" transform="translate(157.5 169.5)"><path d="m17 .32394366 17 53.67605634h-34z"/><path d="m17 6.32394366v55.00000004c0-.8528081 0-19.1861415 0-55.00000004z"/><path d="m17 29.3239437c5.3333333 6.4612174 8 9.7945507 8 10 0-.2054493-2.6666667-3.5387826-8-10z" transform="matrix(-1 0 0 1 42 0)"/></g><path d="m18.9209988 1.95433401 14.3382972 49.48910199c.3073818 1.0609384-.3034965 2.170181-1.3644348 2.4775628-.1808769.0524048-.3682486.0790012-.556564.0790012h-28.6765944c-1.1045695 0-1.99999999-.8954305-1.99999999-2 0-.1883154.02659637-.3756871.07900116-.556564l14.33829723-49.48910199c.3073818-1.06093836 1.4166244-1.67181665 2.4775628-1.36443485.6586462.19082718 1.1736077.70578861 1.3644348 1.36443485z" fill="#c2e8ff" transform="translate(402.5 169.5)"/><g stroke="#8cd3f8" stroke-linecap="round" stroke-linejoin="round" stroke-width="3" transform="translate(402.5 169.5)"><path d="m17-4.67605634 17 58.67605634h-34z"/><path d="m17 1.32394366v60.00000004c0-.9303361 0-20.9303361 0-60.00000004z"/><path d="m17 29.3239437c5.3333333 6.4612174 8 9.7945507 8 10 0-.2054493-2.6666667-3.5387826-8-10z" transform="matrix(-1 0 0 1 42 0)"/></g><path d="m25.6478873 0 25.2518929 86.4391718c.3097369 1.0602531-.2986768 2.1708495-1.35893 2.4805864-.1821881.0532235-.371025.0802418-.5608282.0802418h-46.66426931c-1.1045695 0-2-.8954305-2-2 0-.1898032.02701826-.3786401.08024176-.5608282z" fill="#c2e8ff" transform="translate(95.852113 154.5)"/><g stroke="#8cd3f8" stroke-linecap="round" stroke-linejoin="round" stroke-width="3" transform="translate(94.852113 156.5)"><path d="m26.6478873 0 26 87h-51.99999998z"/><path d="m26.6478873 6v90c0-1.5027052 0-31.5027052 0-90z"/><path d="m15.6478873 42c7.3333334 7.078692 11 10.7453587 11 11 0-.2546413-3.6666666-3.921308-11-11z"/><path d="m27.6478873 68c9.3333334-10.921308 14-16.2546413 14-16 0-.2546413-4.6666666 5.078692-14 16z"/></g><g transform="translate(270)"><circle cx="64" cy="64" fill="#c2e8ff" r="23"/><g stroke="#c2e8ff" stroke-linecap="round" stroke-linejoin="round" stroke-width="3"><path d="m64 109c24.8528137 0 45-20.1471863 45-45s-20.1471863-45-45-45-45 20.1471863-45 45 20.1471863 45 45 45z" stroke-dasharray="135 1 1 18" transform="matrix(-.64278761 -.76604444 .76604444 -.64278761 56.111563 154.165251)"/><path d="m64 97c18.2253967 0 33-14.7746033 33-33s-14.7746033-33-33-33-33 14.7746033-33 33 14.7746033 33 33 33z" stroke-dasharray="107 10" transform="matrix(-.8660254 .5 -.5 -.8660254 151.425626 87.425626)"/></g></g><circle cx="334" cy="64" r="23" stroke="#8cd3f8" stroke-width="3"/></g></svg>