<?xml version="1.0" encoding="UTF-8"?>
<svg width="251px" height="38px" viewBox="0 0 251 38" version="1.1" xmlns="http://www.w3.org/2000/svg" xmlns:xlink="http://www.w3.org/1999/xlink">
    <title>logo-blends</title>
    <defs>
        <filter id="filter-1">
            <feColorMatrix in="SourceGraphic" type="matrix" values="0 0 0 0 1.000000 0 0 0 0 1.000000 0 0 0 0 1.000000 0 0 0 1.000000 0"></feColorMatrix>
        </filter>
        <polygon id="path-2" points="0 0.468874627 29.7070458 0.468874627 29.7070458 27.2685164 0 27.2685164"></polygon>
        <polygon id="path-4" points="0.118675525 0.0941492537 36.6331793 0.0941492537 36.6331793 32.9401582 0.118675525 32.9401582"></polygon>
    </defs>
    <g id="logo-blends" stroke="none" stroke-width="1" fill="none" fill-rule="evenodd">
        <g id="Logo/blends" filter="url(#filter-1)">
            <g>
                <path d="M71.5841847,26.2555612 L71.5841847,26.192606 C70.005987,25.3985761 68.5225488,25.0497701 67.3233892,25.018009 C65.4298903,24.9868149 64.1991443,25.874994 64.1991443,27.2713522 C64.1991443,28.4453821 65.2719578,29.2070836 66.9133285,29.2388448 C69.0595196,29.2388448 70.9214319,28.3500985 71.5841847,26.2555612 M75.5922881,31.4604269 L73.130796,31.7774716 C72.8465173,31.8415612 72.6259757,31.650994 72.5622387,31.3651433 L72.089569,29.4294119 C70.7319128,31.2063373 68.4283533,32.0633224 65.9978836,32.0315612 C62.8420521,31.9998 60.7906207,30.2228746 60.7906207,27.4619194 C60.7906207,24.0975015 63.7885196,22.5105761 67.1028476,22.5105761 C68.6173083,22.5105761 70.1955061,22.8917104 71.5525982,23.5898896 L71.5525982,22.7964269 C71.5525982,20.5436507 69.9117915,19.0202478 67.2602162,19.0202478 C65.7451915,19.0202478 64.5144454,19.4008149 63.1889398,20.0678 C62.7788791,20.2260388 62.4946004,20.0354716 62.3688184,19.6231433 L61.8002611,17.8462179 C61.7055016,17.528606 61.8634342,17.2427552 62.1792993,17.0845164 C63.8832791,16.2910537 65.714169,15.846397 67.7650364,15.846397 C72.2469375,15.846397 75.1822274,18.5438299 75.1822274,22.5429045 L75.1822274,27.0807851 L75.9713263,30.8892925 C76.0344993,31.2063373 75.8765667,31.4286657 75.5922881,31.4604269" id="Fill-1" fill="#353535"></path>
                <path d="M85.9439229,31.3971881 C85.3127566,31.7777552 84.4604847,32.0312776 83.4824308,32.0312776 C81.1783072,32.0312776 79.5685229,30.730203 79.5685229,27.8745313 L79.5685229,9.97539701 C79.5685229,9.69011343 79.7264555,9.53130746 80.0101701,9.50011343 L82.6301589,9.05545672 C83.0718061,8.99193433 83.3244982,9.27778507 83.3244982,9.75363582 L83.3244982,27.8745313 C83.3244982,28.5727104 83.7029724,29.0168 84.2715297,29.0168 C84.5868308,29.0168 84.965869,28.9532776 85.3127566,28.7944716 C85.6912308,28.6362328 85.9123364,28.857994 85.9755094,29.1120836 L86.2597881,30.699009 C86.3223971,30.9525313 86.1650285,31.2383821 85.9439229,31.3971881" id="Fill-3" fill="#353535"></path>
                <path d="M101.534746,23.8440358 C101.534746,21.0513194 99.9571119,19.1785433 97.5266422,19.1785433 C95.6015569,19.1785433 93.9285996,20.3531403 92.8873726,22.2571104 L92.8873726,26.2879463 C93.9285996,28.0013493 95.6331434,28.9536179 97.5898153,28.9536179 C99.9571119,28.9536179 101.534746,26.8902746 101.534746,23.8440358 M105.195961,23.8440358 C105.195961,28.7630507 102.292258,32.0316179 97.937267,32.0316179 C95.7905119,32.0316179 94.0865321,31.2381552 92.8873726,29.841797 L92.8873726,37.2676776 C92.8873726,37.5535284 92.72944,37.7123343 92.4451613,37.7123343 L89.542022,37.9023343 C89.2577434,37.9346627 89.0682243,37.7440955 89.0682243,37.4582448 L89.0682243,21.4318866 L88.4686445,16.8304836 C88.437058,16.5769612 88.5949906,16.3546328 88.9108557,16.2911104 L91.687649,15.9105433 C91.9719276,15.8782149 92.1930333,16.0687821 92.2246198,16.3546328 L92.6030939,19.1155881 C93.708058,17.2745731 95.6957524,15.8464537 98.5046962,15.8464537 C102.513364,15.8464537 105.195961,19.0520657 105.195961,23.8440358" id="Fill-5" fill="#353535"></path>
                <path d="M108.793496,31.111394 L108.793496,16.7672448 C108.793496,16.481394 108.951429,16.3225881 109.235144,16.3225881 L112.265193,16.3225881 C112.548908,16.3225881 112.70684,16.481394 112.70684,16.7672448 L112.70684,31.111394 C112.70684,31.3972448 112.548908,31.5554836 112.265193,31.5554836 L109.235144,31.5554836 C108.951429,31.5554836 108.793496,31.3972448 108.793496,31.111394 M108.288112,11.3406179 C108.288112,10.0395433 109.298317,9.18255821 110.781755,9.18255821 C112.20202,9.18255821 113.180074,10.0395433 113.180074,11.3406179 C113.180074,12.7052149 112.20202,13.5622 110.781755,13.5622 C109.298317,13.5622 108.288112,12.7052149 108.288112,11.3406179" id="Fill-7" fill="#353535"></path>
                <path d="M133.158151,21.9082478 L133.158151,31.1116209 C133.158151,31.3969045 133.000218,31.5869045 132.716504,31.5869045 L129.686454,31.5869045 C129.402176,31.5869045 129.244807,31.3969045 129.244807,31.1116209 L129.244807,22.7329045 C129.244807,20.5436507 127.887715,19.0837701 125.86787,19.0837701 C124.226499,19.0837701 122.648302,20.0354716 121.480729,21.940009 L121.480729,31.1116209 C121.480729,31.3969045 121.322796,31.5557104 121.070668,31.5557104 L118.040618,31.5557104 C117.75634,31.5557104 117.598971,31.3969045 117.598971,31.1116209 L117.598971,21.1465463 L116.904632,16.7986657 C116.873045,16.5128149 117.062,16.3222478 117.346279,16.2910537 L120.123636,15.9416806 C120.407915,15.9104866 120.59687,16.0687254 120.660043,16.3863373 L121.133841,18.9249642 C122.238241,16.8939493 124.416018,15.846397 127.130203,15.846397 C130.759832,15.846397 133.158151,18.2585463 133.158151,21.9082478" id="Fill-9" fill="#353535"></path>
                <path d="M144.424441,18.9250776 C142.183491,18.9250776 140.57427,20.353197 140.100473,22.6059731 L148.274612,22.6059731 C148.306762,20.2896746 146.633805,18.9250776 144.424441,18.9250776 M151.49418,24.1611373 C151.462594,24.7322716 150.98936,25.0816448 150.326607,25.0816448 L140.100473,25.0816448 C140.511097,27.3979433 142.215641,28.858391 144.645547,28.858391 C146.22318,28.858391 147.927724,28.5725403 149.000538,28.0966896 C149.442185,27.9061224 149.821223,28.001406 149.915983,28.3502119 L150.421367,30.0000925 C150.515562,30.3812269 150.452953,30.6988388 150.137088,30.8570776 C148.937929,31.5558239 146.854911,32.0311075 144.645547,32.0311075 C139.721998,32.0311075 136.439821,28.7943015 136.439821,23.9393761 C136.439821,19.0833164 139.595652,15.8465104 144.329682,15.8465104 C148.843169,15.8465104 151.872655,18.7980328 151.49418,24.1611373" id="Fill-11" fill="#353535"></path>
                <path d="M174.351312,23.9249134 C174.351312,20.4907343 172.729683,18.0973015 169.728964,18.0973015 C167.969708,18.0973015 166.451863,18.9298985 165.31362,19.7970925 L165.31362,29.9601075 C166.141074,30.1330925 167.279881,30.3066448 168.245526,30.3066448 C172.281267,30.3066448 174.351312,27.8440179 174.351312,23.9249134 M163.312953,31.278197 L163.312953,8.66252537 L160.587487,8.66252537 L160.587487,7.03249552 L165.31362,7.03249552 L165.31362,18.1670627 C166.58949,17.2301075 168.210555,16.4672716 170.142973,16.4672716 C174.040523,16.4672716 176.386386,19.5191821 176.386386,23.9595104 C176.386386,29.1967045 173.178099,31.9372418 168.314339,31.9372418 C166.762087,31.9372418 164.830233,31.6598985 163.312953,31.278197" id="Fill-13" fill="#353535"></path>
                <polygon id="Fill-15" fill="#353535" points="178.144853 29.9255104 180.869754 29.9255104 180.869754 8.69712239 178.144853 8.69712239 178.144853 7.03249552 182.870421 7.03249552 182.870421 29.9255104 185.595887 29.9255104 185.595887 31.5555403 178.144853 31.5555403"></polygon>
                <path d="M189.389427,23.1616806 L198.496497,23.1616806 C198.358306,20.6292925 197.185092,18.0628746 194.11556,18.0628746 C191.321281,18.0628746 189.665245,20.178397 189.389427,23.1616806 M187.354353,24.2716209 C187.354353,19.6237104 189.976034,16.4668746 194.11556,16.4668746 C198.668531,16.4668746 200.427787,20.3519493 200.427787,23.7169343 C200.427787,23.9942776 200.427787,24.3759791 200.358973,24.6873522 L189.35502,24.6873522 C189.493211,28.1566955 191.424501,30.3068149 194.77098,30.3068149 C196.59905,30.3068149 198.323899,29.6823672 199.703553,28.8157403 L199.703553,30.5495612 C198.427119,31.2783672 196.736677,31.9374119 194.598382,31.9374119 C189.90722,31.9374119 187.354353,28.8157403 187.354353,24.2716209" id="Fill-17" fill="#353535"></path>
                <path d="M202.496816,29.9255104 L205.221718,29.9255104 L205.221718,18.5136 L202.496816,18.5136 L202.496816,16.848406 L207.187978,16.848406 L207.187978,19.1374806 C208.877857,17.5420478 210.913495,16.4667045 213.052353,16.4667045 C215.674034,16.4667045 217.33007,18.0973015 217.33007,21.2535701 L217.33007,29.9255104 L220.054971,29.9255104 L220.054971,31.5555403 L212.603938,31.5555403 L212.603938,29.9255104 L215.328839,29.9255104 L215.328839,21.4968836 C215.328839,19.5191821 214.639012,18.1670627 212.535124,18.1670627 C210.499486,18.1670627 208.63701,19.4499881 207.222385,20.7334806 L207.222385,29.9255104 L209.94785,29.9255104 L209.94785,31.5555403 L202.496816,31.5555403 L202.496816,29.9255104 Z" id="Fill-19" fill="#353535"></path>
                <path d="M233.092419,27.948206 L233.092419,20.1434597 C232.057961,19.1032806 230.643336,18.1317284 228.677075,18.1317284 C225.365567,18.1317284 223.709531,20.7684746 223.709531,24.2020866 C223.709531,27.3929522 225.124156,30.3064746 228.401257,30.3064746 C230.505145,30.3064746 231.954176,29.0933104 233.092419,27.948206 M221.674457,24.2020866 C221.674457,19.9012806 224.054727,16.4671015 228.297473,16.4671015 C230.401925,16.4671015 231.91977,17.3342955 233.092419,18.4788328 L233.092419,8.6975194 L229.884696,8.6975194 L229.884696,7.03232537 L235.05868,7.03232537 L235.05868,29.9253403 L237.818552,29.9253403 L237.818552,31.5553701 L233.196203,31.5553701 L233.196203,29.4398478 C231.988583,30.8271313 230.298704,31.9370716 228.021655,31.9370716 C223.916536,31.9370716 221.674457,28.3991015 221.674457,24.2020866" id="Fill-21" fill="#353535"></path>
                <path d="M239.576172,31.0698209 L239.576172,27.4626567 L241.266051,27.4626567 L241.266051,29.8214925 C242.266667,30.0988358 243.64632,30.3415821 244.853377,30.3415821 C246.957828,30.3415821 248.648271,29.6479403 248.648271,27.9481493 C248.648271,24.1328358 239.85199,25.9710149 239.85199,20.5602687 C239.85199,18.0624776 241.714467,16.4670448 245.232979,16.4670448 C246.889015,16.4670448 248.683242,16.8487463 249.924705,17.2304478 L249.924705,20.8376119 L248.199855,20.8376119 L248.199855,18.4441791 C247.371837,18.2360299 246.199188,18.0624776 245.232979,18.0624776 C242.956493,18.0624776 241.749437,18.9994328 241.749437,20.4213134 C241.749437,24.3058209 250.545154,22.3292537 250.545154,27.8443582 C250.545154,30.4453731 248.475673,31.9370149 244.888347,31.9370149 C243.09412,31.9370149 241.05961,31.5553134 239.576172,31.0698209" id="Fill-23" fill="#353535"></path>
                <g id="Group-27" transform="translate(0.000000, 6.144713)">
                    <mask id="mask-3" fill="white">
                        <use xlink:href="#path-2"></use>
                    </mask>
                    <g id="Clip-26"></g>
                    <path d="M4.83324472,23.726009 L24.9730335,23.726009 L15.2387458,5.83708358 L4.83324472,23.726009 Z M27.9455503,27.2685164 L1.76202,27.2685164 C1.13085371,27.2685164 0.547631236,26.9293522 0.233458202,26.3786358 C-0.0807148315,25.8279194 -0.0778946067,25.1507254 0.240790787,24.6028448 L13.7694088,1.34627761 C14.0852739,0.802367164 14.6645481,0.468874627 15.2900739,0.468874627 C15.2985346,0.468874627 15.3064312,0.468874627 15.3148919,0.469441791 C15.9494425,0.478516418 16.5304088,0.830725373 16.8355571,1.38994925 L29.4910335,24.6470836 C29.7894133,25.1960985 29.7781324,25.8625164 29.4605751,26.4007552 C29.1435818,26.938994 28.5676919,27.2685164 27.9455503,27.2685164 L27.9455503,27.2685164 Z" id="Fill-25" fill="#353535" mask="url(#mask-3)"></path>
                </g>
                <g id="Group-30" transform="translate(12.973034, 0.473072)">
                    <mask id="mask-5" fill="white">
                        <use xlink:href="#path-4"></use>
                    </mask>
                    <g id="Clip-29"></g>
                    <path d="M4.95191978,29.3976507 L31.899167,29.3976507 L18.8748052,5.46218806 L4.95191978,29.3976507 Z M34.8711198,32.9401582 L1.88069506,32.9401582 C1.24952876,32.9401582 0.666306292,32.600994 0.352133258,32.0502776 C0.0385242697,31.4995612 0.0407804494,30.8223672 0.359465843,30.2744866 L17.404904,0.97138209 C17.7252816,0.419531343 18.3180928,0.089441791 18.9509512,0.0939329271 C19.5855018,0.103620896 20.1664681,0.455829851 20.4710524,1.01505373 L36.417167,30.3187254 C36.7155467,30.8677403 36.7042658,31.5341582 36.3867085,32.072397 C36.0697153,32.6106358 35.4932613,32.9401582 34.8711198,32.9401582 L34.8711198,32.9401582 Z" id="Fill-28" fill="#353535" mask="url(#mask-5)"></path>
                </g>
            </g>
        </g>
    </g>
</svg>