<?xml version="1.0" encoding="UTF-8"?>
<svg width="256px" height="39px" viewBox="0 0 256 39" version="1.1" xmlns="http://www.w3.org/2000/svg" xmlns:xlink="http://www.w3.org/1999/xlink">
    <title>logo-energy</title>
    <defs>
        <filter id="filter-1">
            <feColorMatrix in="SourceGraphic" type="matrix" values="0 0 0 0 1.000000 0 0 0 0 1.000000 0 0 0 0 1.000000 0 0 0 1.000000 0"></feColorMatrix>
        </filter>
        <polygon id="path-2" points="0 0.102021739 29.7637412 0.102021739 29.7637412 26.8096739 0 26.8096739"></polygon>
        <polygon id="path-4" points="0.118902015 0.293347826 36.703093 0.293347826 36.703093 33.0270652 0.118902015 33.0270652"></polygon>
    </defs>
    <g id="logo-energy" stroke="none" stroke-width="1" fill="none" fill-rule="evenodd">
        <g id="Logo/energy" filter="url(#filter-1)">
            <g>
                <path d="M71.7208018,26.1658913 L71.7208018,26.1031522 C70.1395921,25.3118478 68.6533227,24.9642391 67.4518746,24.932587 C65.554762,24.9015 64.3216671,25.7866304 64.3216671,27.1781957 C64.3216671,28.3481957 65.396528,29.1072826 67.0410313,29.1389348 C69.1913183,29.1389348 71.0567841,28.2532391 71.7208018,26.1658913 M75.7365545,31.3528913 L73.2703647,31.6688478 C72.9855435,31.7327174 72.764581,31.5428043 72.7007223,31.2579348 L72.2271506,29.3288478 C70.8669033,31.0996739 68.5589475,31.9537174 66.1238393,31.9220652 C62.961985,31.890413 60.9066384,30.119587 60.9066384,27.3681087 C60.9066384,24.0152391 63.9102587,22.4337609 67.2309121,22.4337609 C68.7482631,22.4337609 70.3294728,22.813587 71.689155,23.5093696 L71.689155,22.7186304 C71.689155,20.473587 70.0452168,18.955413 67.388581,18.955413 C65.8706649,18.955413 64.63757,19.3346739 63.3095347,19.9993696 C62.8986914,20.1570652 62.6138702,19.9671522 62.4878481,19.5562391 L61.9182057,17.785413 C61.8232653,17.4688913 61.9814993,17.1840217 62.2979673,17.0263261 C64.0051991,16.235587 65.8395832,15.7924565 67.8943647,15.7924565 C72.3848194,15.7924565 75.3257113,18.4806304 75.3257113,22.4659783 L75.3257113,26.9882826 L76.1163161,30.7837174 C76.1796097,31.0996739 76.0213757,31.3212391 75.7365545,31.3528913" id="Fill-1" fill="#353535"></path>
                <path d="M86.1079453,31.289813 C85.4755744,31.6690739 84.6216759,31.9217261 83.6417554,31.9217261 C81.3332344,31.9217261 79.7203779,30.6251174 79.7203779,27.7792478 L79.7203779,9.94155217 C79.7203779,9.65724783 79.8786119,9.49898696 80.162868,9.4679 L82.787857,9.02476957 C83.230347,8.96146522 83.4835214,9.24633478 83.4835214,9.72055217 L83.4835214,27.7792478 C83.4835214,28.4750304 83.8627179,28.9175957 84.4323603,28.9175957 C84.7482631,28.9175957 85.1280247,28.8542913 85.4755744,28.6960304 C85.8547709,28.5383348 86.0762985,28.7593348 86.1395921,29.0125522 L86.4244132,30.5940304 C86.4871417,30.8466826 86.3294728,31.1315522 86.1079453,31.289813" id="Fill-3" fill="#353535"></path>
                <path d="M101.728523,23.762587 C101.728523,20.9794565 100.147878,19.1131087 97.71277,19.1131087 C95.7840106,19.1131087 94.1078605,20.2836739 93.0646464,22.1811087 L93.0646464,26.1981087 C94.1078605,27.9056304 95.8156574,28.8546304 97.7760636,28.8546304 C100.147878,28.8546304 101.728523,26.7983696 101.728523,23.762587 M105.396726,23.762587 C105.396726,28.6647174 102.487481,31.9220652 98.1241784,31.9220652 C95.9733263,31.9220652 94.2660945,31.1313261 93.0646464,29.7397609 L93.0646464,37.1401522 C93.0646464,37.4250217 92.9064124,37.5832826 92.6215912,37.5832826 L89.7129113,37.7726304 C89.4280901,37.8048478 89.2382093,37.6149348 89.2382093,37.3300652 L89.2382093,21.3587174 L88.6374852,16.7731087 C88.6058384,16.5204565 88.7640724,16.2988913 89.0805404,16.235587 L91.8626331,15.8563261 C92.1474543,15.8241087 92.3689819,16.0140217 92.4006287,16.2988913 L92.7798252,19.0503696 C93.886898,17.2156739 95.8783859,15.7924565 98.6926905,15.7924565 C102.709008,15.7924565 105.396726,18.9870652 105.396726,23.762587" id="Fill-5" fill="#353535"></path>
                <path d="M109.001127,31.005 L109.001127,16.710087 C109.001127,16.4252174 109.159361,16.2675217 109.443617,16.2675217 L112.479449,16.2675217 C112.763705,16.2675217 112.921939,16.4252174 112.921939,16.710087 L112.921939,31.005 C112.921939,31.2898696 112.763705,31.4475652 112.479449,31.4475652 L109.443617,31.4475652 C109.159361,31.4475652 109.001127,31.2898696 109.001127,31.005 M108.494778,11.302087 C108.494778,10.0054783 109.50691,9.15143478 110.99318,9.15143478 C112.416155,9.15143478 113.396076,10.0054783 113.396076,11.302087 C113.396076,12.662 112.416155,13.5160435 110.99318,13.5160435 C109.50691,13.5160435 108.494778,12.662 108.494778,11.302087" id="Fill-7" fill="#353535"></path>
                <path d="M133.412281,21.8335 L133.412281,31.0052826 C133.412281,31.289587 133.254047,31.4789348 132.969791,31.4789348 L129.933958,31.4789348 C129.649137,31.4789348 129.491468,31.289587 129.491468,31.0052826 L129.491468,22.6553261 C129.491468,20.473587 128.131786,19.0187174 126.108087,19.0187174 C124.463583,19.0187174 122.882374,19.9671522 121.712572,21.8651522 L121.712572,31.0052826 C121.712572,31.289587 121.554338,31.4478478 121.301729,31.4478478 L118.265897,31.4478478 C117.981075,31.4478478 117.823407,31.289587 117.823407,31.0052826 L117.823407,21.074413 L117.127742,16.7414565 C117.096095,16.456587 117.285411,16.2672391 117.570232,16.235587 L120.35289,15.887413 C120.637711,15.8563261 120.827027,16.0140217 120.890321,16.3305435 L121.365023,18.8604565 C122.47153,16.836413 124.653464,15.7924565 127.372828,15.7924565 C131.009385,15.7924565 133.412281,18.1963261 133.412281,21.8335" id="Fill-9" fill="#353535"></path>
                <path d="M144.700072,18.8605696 C142.454845,18.8605696 140.842554,20.283787 140.367852,22.5288304 L148.557591,22.5288304 C148.589803,20.2204826 146.913653,18.8605696 144.700072,18.8605696 M151.783304,24.0786565 C151.751657,24.6478304 151.277521,24.9954391 150.613503,24.9954391 L140.367852,24.9954391 C140.77926,27.3043522 142.487057,28.759787 144.9216,28.759787 C146.502245,28.759787 148.210042,28.4749174 149.284902,28.0007 C149.727392,27.810787 150.107154,27.9057435 150.202094,28.2533522 L150.708443,29.8975696 C150.802819,30.2773957 150.74009,30.5939174 150.423622,30.751613 C149.222174,31.4479609 147.135181,31.921613 144.9216,31.921613 C139.988655,31.921613 136.700214,28.6959174 136.700214,23.8576565 C136.700214,19.0182652 139.862068,15.7925696 144.605132,15.7925696 C149.127234,15.7925696 152.162501,18.7339609 151.783304,24.0786565" id="Fill-11" fill="#353535"></path>
                <path d="M164.591894,23.0825739 L173.716344,23.0825739 C173.57789,20.5588783 172.402437,18.0012696 169.327046,18.0012696 C166.527435,18.0012696 164.868238,20.1095304 164.591894,23.0825739 M162.552936,24.1887043 C162.552936,19.5567478 165.17962,16.4107478 169.327046,16.4107478 C173.888706,16.4107478 175.65132,20.282487 175.65132,23.6359217 C175.65132,23.912313 175.65132,24.2927043 175.582375,24.6030087 L164.557422,24.6030087 C164.695876,28.0604435 166.630852,30.2037478 169.983717,30.2037478 C171.815276,30.2037478 173.543417,29.5808783 174.925704,28.7172261 L174.925704,30.4450957 C173.646834,31.1714 171.953166,31.8281826 169.81079,31.8281826 C165.110675,31.8281826 162.552936,28.7172261 162.552936,24.1887043" id="Fill-13" fill="#353535"></path>
                <path d="M177.724355,29.8232435 L180.454457,29.8232435 L180.454457,18.4505043 L177.724355,18.4505043 L177.724355,16.7910261 L182.42447,16.7910261 L182.42447,19.0722435 C184.117574,17.4828522 186.157097,16.4112 188.300037,16.4112 C190.926721,16.4112 192.585918,18.0362 192.585918,21.1810696 L192.585918,29.8232435 L195.316019,29.8232435 L195.316019,31.4476783 L187.850766,31.4476783 L187.850766,29.8232435 L190.580867,29.8232435 L190.580867,21.4235478 C190.580867,19.4526348 189.889724,18.1051565 187.781821,18.1051565 C185.742298,18.1051565 183.876267,19.3836783 182.458942,20.6627652 L182.458942,29.8232435 L185.189609,29.8232435 L185.189609,31.4476783 L177.724355,31.4476783 L177.724355,29.8232435 Z" id="Fill-15" fill="#353535"></path>
                <path d="M198.977667,23.0825739 L208.102117,23.0825739 C207.963663,20.5588783 206.788775,18.0012696 203.712819,18.0012696 C200.913208,18.0012696 199.254011,20.1095304 198.977667,23.0825739 M196.938709,24.1887043 C196.938709,19.5567478 199.565393,16.4107478 203.712819,16.4107478 C208.274479,16.4107478 210.037093,20.282487 210.037093,23.6359217 C210.037093,23.912313 210.037093,24.2927043 209.968148,24.6030087 L198.943195,24.6030087 C199.081649,28.0604435 201.016625,30.2037478 204.369491,30.2037478 C206.201049,30.2037478 207.92919,29.5808783 209.311477,28.7172261 L209.311477,30.4450957 C208.032608,31.1714 206.338939,31.8281826 204.196563,31.8281826 C199.496449,31.8281826 196.938709,28.7172261 196.938709,24.1887043" id="Fill-17" fill="#353535"></path>
                <path d="M212.110128,29.8232435 L214.84023,29.8232435 L214.84023,18.4505043 L212.110128,18.4505043 L212.110128,16.7910261 L216.810243,16.7910261 L216.810243,19.8680696 C217.916185,18.2085913 219.713272,16.4112 222.409466,16.4112 L222.754755,16.4112 L222.754755,18.4154609 L222.374428,18.4154609 C219.920671,18.4154609 218.123585,19.7640696 216.844715,21.0770696 L216.844715,29.8232435 L219.886199,29.8232435 L219.886199,31.4476783 L212.110128,31.4476783 L212.110128,29.8232435 Z" id="Fill-19" fill="#353535"></path>
                <path d="M226.210585,21.8036565 C226.210585,23.8084826 227.523928,25.6403522 230.150612,25.6403522 C232.811769,25.6403522 234.090073,23.8084826 234.090073,21.8036565 C234.090073,19.7982652 232.811769,17.9663957 230.150612,17.9663957 C227.523928,17.9663957 226.210585,19.7982652 226.210585,21.8036565 M235.196016,34.2130043 C235.196016,31.4473957 230.530939,31.7588304 227.454418,31.0675696 C226.072131,31.827787 225.208625,32.9689609 225.208625,34.2480478 C225.208625,35.9759174 226.797747,37.1510043 230.012157,37.1510043 C233.295513,37.1510043 235.196016,35.9414391 235.196016,34.2130043 M223.410974,34.5244391 C223.410974,32.7615261 224.551389,31.4473957 226.003186,30.5831783 C225.27757,30.2033522 224.793261,29.6505696 224.793261,28.7863522 C224.793261,27.6451783 225.587822,26.8154391 226.521402,26.1586565 C225.00066,25.1220478 224.343989,23.393613 224.343989,21.8036565 C224.343989,19.2110043 226.072131,16.4109174 230.150612,16.4109174 C231.049155,16.4109174 231.844281,16.5493957 232.534859,16.7913087 L238.030665,16.7913087 L238.030665,18.4157435 L234.608855,18.346787 C235.54187,19.2799609 235.956669,20.5935261 235.956669,21.8036565 C235.956669,24.3957435 234.228528,27.1613522 230.150612,27.1613522 C229.148087,27.1613522 228.318488,27.0228739 227.627345,26.7464826 C227.040184,27.1613522 226.590912,27.6796565 226.590912,28.1979609 C226.590912,30.8256565 237.166594,28.3370043 237.166594,34.1440478 C237.166594,37.0475696 234.4704,38.7064826 230.04663,38.7064826 C225.346515,38.7064826 223.410974,36.8407 223.410974,34.5244391" id="Fill-21" fill="#353535"></path>
                <path d="M239.342481,37.7042957 L239.930208,36.2528174 C240.655823,36.7021652 241.415912,37.0819913 242.452909,37.0819913 C243.870234,37.0819913 244.907232,36.2872957 245.494393,34.7662957 L246.703753,31.4479043 L245.114066,31.4479043 L240.759241,18.4507304 L238.581828,18.4507304 L238.581828,16.7912522 L245.59781,16.7912522 L245.59781,18.415687 L242.833236,18.415687 L246.87668,30.9985565 L251.50785,18.415687 L248.743276,18.415687 L248.743276,16.7912522 L255.689748,16.7912522 L255.689748,18.4507304 L253.512336,18.4507304 L247.188062,35.3190783 C246.427408,37.3934261 244.872194,38.7064261 242.660309,38.7064261 C241.346967,38.7064261 240.275497,38.2576435 239.342481,37.7042957" id="Fill-23" fill="#353535"></path>
                <g id="Group-27" transform="translate(0.000000, 6.489261)">
                    <mask id="mask-3" fill="white">
                        <use xlink:href="#path-2"></use>
                    </mask>
                    <g id="Clip-26"></g>
                    <path d="M4.84246887,23.2787609 L25.020694,23.2787609 L15.2678287,5.45123913 L4.84246887,23.2787609 Z M27.9988839,26.8096739 L1.76538278,26.8096739 C1.13301192,26.8096739 0.54867638,26.4711087 0.233903753,25.9228478 C-0.0808688742,25.3734565 -0.0780432671,24.698587 0.241250331,24.152587 L13.7956874,0.975847826 C14.1121554,0.433804348 14.6925351,0.102021739 15.3192547,0.102021739 L15.3441201,0.102021739 C15.9798817,0.111630435 16.5619567,0.462065217 16.8676874,1.01993478 L29.5473166,24.1966739 C29.8462658,24.7438043 29.8349634,25.4079348 29.5168,25.9443261 C29.1992018,26.4807174 28.6222128,26.8096739 27.9988839,26.8096739 L27.9988839,26.8096739 Z" id="Fill-25" fill="#353535" mask="url(#mask-3)"></path>
                </g>
                <g id="Group-30" transform="translate(12.997792, 0.271870)">
                    <mask id="mask-5" fill="white">
                        <use xlink:href="#path-4"></use>
                    </mask>
                    <g id="Clip-29"></g>
                    <path d="M4.96137042,29.4961522 L31.9600459,29.4961522 L18.9108274,5.64284783 L4.96137042,29.4961522 Z M34.9376706,33.0270652 L1.88428433,33.0270652 C1.25191347,33.0270652 0.667577925,32.6885 0.352805298,32.1402391 C0.0385977925,31.5908478 0.0408582781,30.9159783 0.360151876,30.3699783 L17.438121,1.16745652 C17.7591099,0.6175 18.3530525,0.288543478 18.9871188,0.293019198 C19.6228804,0.30323913 20.2049554,0.653673913 20.510121,1.21097826 L36.4866684,30.4140652 C36.7856177,30.9611957 36.7743152,31.6253261 36.4561519,32.1617174 C36.1385536,32.6981087 35.5609996,33.0270652 34.9376706,33.0270652 L34.9376706,33.0270652 Z" id="Fill-28" fill="#353535" mask="url(#mask-5)"></path>
                </g>
            </g>
        </g>
    </g>
</svg>