<?xml version="1.0" encoding="UTF-8"?>
<svg width="285px" height="38px" viewBox="0 0 285 38" version="1.1" xmlns="http://www.w3.org/2000/svg" xmlns:xlink="http://www.w3.org/1999/xlink">
    <title>logo-nutrition</title>
    <defs>
        <filter id="filter-1">
            <feColorMatrix in="SourceGraphic" type="matrix" values="0 0 0 0 1.000000 0 0 0 0 1.000000 0 0 0 0 1.000000 0 0 0 1.000000 0"></feColorMatrix>
        </filter>
        <polygon id="path-2" points="0.474868386 0.0590878788 17.2486071 0.0590878788 17.2486071 21.8636364 0.474868386 21.8636364"></polygon>
        <polygon id="path-4" points="0.216747024 0.111840909 17.8192857 0.111840909 17.8192857 15.0262045 0.216747024 15.0262045"></polygon>
        <polygon id="path-6" points="0 0.463284848 29.7824265 0.463284848 29.7824265 26.9530424 0 26.9530424"></polygon>
    </defs>
    <g id="logo-nutrition" stroke="none" stroke-width="1" fill="none" fill-rule="evenodd">
        <g id="Logo/nutrition" filter="url(#filter-1)">
            <g>
                <path d="M71.7658274,25.3919227 L71.7658274,25.3291348 C70.183625,24.544847 68.6964226,24.2000742 67.4942202,24.1686803 C65.5959167,24.1372864 64.3620476,25.0157561 64.3620476,26.3959682 C64.3620476,27.5564227 65.4375833,28.3093167 67.083119,28.3407106 C69.234756,28.3407106 71.1013929,27.4622409 71.7658274,25.3919227 M75.7841012,30.5360439 L73.3163631,30.8499833 C73.0313631,30.9127712 72.8102619,30.7244076 72.7463631,30.4418621 L72.272494,28.5285136 C70.9113929,30.285453 68.6019881,31.1325288 66.1653512,31.1011348 C63.0015119,31.0691803 60.944875,29.3128015 60.944875,26.5837712 C60.944875,23.2588167 63.950381,21.6902409 67.273119,21.6902409 C68.7914226,21.6902409 70.373625,22.0669682 71.7341607,22.7570742 L71.7341607,21.9727864 C71.7341607,19.7454985 70.0891905,18.2397106 67.4308869,18.2397106 C65.9120179,18.2397106 64.6781488,18.6164379 63.3492798,19.27515 C62.9381786,19.4321197 62.6531786,19.2437561 62.5270774,18.8361955 L61.9570774,17.0792561 C61.8620774,16.7658773 62.0204107,16.4833318 62.3370774,16.3263621 C64.045381,15.5420742 65.8809167,15.1031197 67.9369881,15.1031197 C72.4302619,15.1031197 75.373,17.7693621 75.373,21.7216348 L75.373,26.2076045 L76.1641012,29.9715136 C76.2274345,30.285453 76.0691012,30.5052106 75.7841012,30.5360439" id="Fill-1" fill="#353535"></path>
                <path d="M86.162003,30.4735364 C85.5292351,30.849703 84.6748006,31.1008545 83.6942649,31.1008545 C81.3842946,31.1008545 79.7704256,29.8148242 79.7704256,26.9916121 L79.7704256,9.30000606 C79.7704256,9.01802121 79.9287589,8.86105152 80.2131935,8.82965758 L82.8398304,8.39014242 C83.2825982,8.32791515 83.5359315,8.6099 83.5359315,9.08024848 L83.5359315,26.9916121 C83.5359315,27.6817182 83.9153661,28.1206727 84.4853661,28.1206727 C84.8014673,28.1206727 85.1814673,28.0578848 85.5292351,27.9014758 C85.9086696,27.7445061 86.1303363,27.9642636 86.1936696,28.2148545 L86.4786696,29.7834303 C86.5414375,30.0345818 86.3836696,30.3165667 86.162003,30.4735364" id="Fill-3" fill="#353535"></path>
                <g id="Group-7" transform="translate(88.214286, 15.043808)">
                    <mask id="mask-3" fill="white">
                        <use xlink:href="#path-2"></use>
                    </mask>
                    <g id="Clip-6"></g>
                    <path d="M13.5781012,7.96419394 C13.5781012,5.2037697 11.9964643,3.35264848 9.55982738,3.35264848 C7.62985714,3.35264848 5.95265476,4.51366364 4.90878571,6.39561818 L4.90878571,10.3792848 C5.95265476,12.0734364 7.66152381,13.0141333 9.62316071,13.0141333 C11.9964643,13.0141333 13.5781012,10.9757697 13.5781012,7.96419394 M17.2486071,7.96419394 C17.2486071,12.8263303 14.3375357,16.057103 9.97149405,16.057103 C7.81929167,16.057103 6.1109881,15.2728152 4.90878571,13.892603 L4.90878571,21.2326182 C4.90878571,21.5151636 4.75045238,21.6721333 4.46545238,21.6721333 L1.55494643,21.860497 C1.26994643,21.8913303 1.07994643,21.7035273 1.07994643,21.4209818 L1.07994643,5.58049697 L0.478845238,1.03173939 C0.447178571,0.781148485 0.605511905,0.561390909 0.922178571,0.49860303 L3.70601786,0.121875758 C3.99101786,0.0910424242 4.21268452,0.278845455 4.24435119,0.561390909 L4.62378571,3.29042121 C5.73155357,1.47069394 7.72429167,0.0590878788 10.5403631,0.0590878788 C14.5592024,0.0590878788 17.2486071,3.22763333 17.2486071,7.96419394" id="Fill-5" fill="#353535" mask="url(#mask-3)"></path>
                </g>
                <path d="M109.069557,30.1913273 L109.069557,16.0124788 C109.069557,15.7304939 109.22789,15.5735242 109.512324,15.5735242 L112.550062,15.5735242 C112.834497,15.5735242 112.99283,15.7304939 112.99283,16.0124788 L112.99283,30.1913273 C112.99283,30.4733121 112.834497,30.6302818 112.550062,30.6302818 L109.512324,30.6302818 C109.22789,30.6302818 109.069557,30.4733121 109.069557,30.1913273 M108.56289,10.6491606 C108.56289,9.3625697 109.575658,8.51549394 111.06286,8.51549394 C112.486729,8.51549394 113.467265,9.3625697 113.467265,10.6491606 C113.467265,11.9974182 112.486729,12.8444939 111.06286,12.8444939 C109.575658,12.8444939 108.56289,11.9974182 108.56289,10.6491606" id="Fill-8" fill="#353535"></path>
                <path d="M133.496036,21.094597 L133.496036,30.1915515 C133.496036,30.4735364 133.337702,30.6619 133.053268,30.6619 L130.01553,30.6619 C129.73053,30.6619 129.572762,30.4735364 129.572762,30.1915515 L129.572762,21.9102788 C129.572762,19.7457788 128.212226,18.3027788 126.187256,18.3027788 C124.54172,18.3027788 122.959518,19.2434758 121.788982,21.1259909 L121.788982,30.1915515 C121.788982,30.4735364 121.630649,30.6305061 121.377881,30.6305061 L118.340143,30.6305061 C118.055143,30.6305061 117.897375,30.4735364 117.897375,30.1915515 L117.897375,20.341703 L117.201274,16.044097 C117.169607,15.7621121 117.359042,15.5737485 117.644042,15.5423545 L120.428446,15.1970212 C120.713446,15.1656273 120.902881,15.322597 120.966214,15.6365364 L121.441214,18.1458091 C122.548417,16.1382788 124.73172,15.1028394 127.452792,15.1028394 C131.091631,15.1028394 133.496036,17.487097 133.496036,21.094597" id="Fill-10" fill="#353535"></path>
                <path d="M144.790914,18.1459212 C142.544277,18.1459212 140.930973,19.5575273 140.455973,21.7848152 L148.650854,21.7848152 C148.683086,19.4947394 147.005884,18.1459212 144.790914,18.1459212 M151.878592,23.3214364 C151.846926,23.8859667 151.372491,24.2313 150.708057,24.2313 L140.455973,24.2313 C140.86764,26.5208152 142.576509,27.9643758 145.01258,27.9643758 C146.594217,27.9643758 148.303086,27.6818303 149.378622,27.2109212 C149.82139,27.0231182 150.20139,27.1173 150.29639,27.4620727 L150.803057,29.0934364 C150.897491,29.469603 150.834723,29.7835424 150.518057,29.9405121 C149.315854,30.6306182 147.227551,31.1009667 145.01258,31.1009667 C140.076539,31.1009667 136.786033,27.9010273 136.786033,23.1022394 C136.786033,18.3028909 139.949872,15.1029515 144.695914,15.1029515 C149.220854,15.1029515 152.258027,18.0203455 151.878592,23.3214364" id="Fill-12" fill="#353535"></path>
                <path d="M162.34386,29.0188758 L165.075676,29.0188758 L165.075676,17.7389212 L162.34386,17.7389212 L162.34386,16.0935424 L167.046926,16.0935424 L167.046926,18.3561485 C168.741092,16.7791636 170.781896,15.7162545 172.926182,15.7162545 C175.554515,15.7162545 177.214753,17.327997 177.214753,20.4477697 L177.214753,29.0188758 L179.946568,29.0188758 L179.946568,30.6306182 L172.476628,30.6306182 L172.476628,29.0188758 L175.208443,29.0188758 L175.208443,20.6877091 C175.208443,18.7334364 174.516866,17.3963909 172.40764,17.3963909 C170.366836,17.3963909 168.499634,18.6650424 167.08142,19.9331333 L167.08142,29.0188758 L169.813801,29.0188758 L169.813801,30.6306182 L162.34386,30.6306182 L162.34386,29.0188758 Z" id="Fill-14" fill="#353535"></path>
                <path d="M183.368661,26.3103076 L183.368661,17.7392015 L180.601786,17.7392015 L180.601786,16.0932621 L185.339911,16.0932621 L185.339911,26.0361712 C185.339911,28.0246409 186.066548,29.3616864 188.140714,29.3616864 C190.181518,29.3616864 192.049286,28.0935955 193.501429,26.8243833 L193.501429,17.7392015 L190.665565,17.7392015 L190.665565,16.0932621 L195.472679,16.0932621 L195.472679,29.0191561 L198.239554,29.0191561 L198.239554,30.6303379 L193.535923,30.6303379 L193.535923,28.4361258 C191.84119,29.9447167 189.766458,31.0076258 187.656667,31.0076258 C185.028899,31.0076258 183.368661,29.4300803 183.368661,26.3103076" id="Fill-16" fill="#353535"></path>
                <path d="M201.799622,26.8246636 L201.799622,17.7389212 L199.240842,17.7389212 L199.240842,16.0935424 L201.799622,16.0935424 L201.799622,12.3217848 L203.805932,12.3217848 L203.805932,16.0935424 L208.543491,16.0935424 L208.543491,17.7389212 L203.805932,17.7389212 L203.805932,26.7220727 C203.805932,28.6073909 204.636051,29.3961636 206.468759,29.3961636 C207.367866,29.3961636 208.19742,29.2246182 208.716527,29.0188758 L208.716527,30.5622242 C207.81742,30.8705576 207.090783,31.0073455 205.984146,31.0073455 C204.358967,31.0073455 201.799622,30.4932697 201.799622,26.8246636" id="Fill-18" fill="#353535"></path>
                <path d="M210.029958,29.0188758 L212.761774,29.0188758 L212.761774,17.7389212 L210.029958,17.7389212 L210.029958,16.0935424 L214.733024,16.0935424 L214.733024,19.1449212 C215.839661,17.4989818 217.637875,15.7162545 220.335762,15.7162545 L220.681268,15.7162545 L220.681268,17.7047242 L220.300702,17.7047242 C217.845405,17.7047242 216.04719,19.0423303 214.767518,20.3446182 L214.767518,29.0188758 L217.810911,29.0188758 L217.810911,30.6306182 L210.029958,30.6306182 L210.029958,29.0188758 Z" id="Fill-20" fill="#353535"></path>
                <path d="M225.487815,9.16803939 C226.386923,9.16803939 227.112994,9.88785758 227.112994,10.7450242 C227.112994,11.6363879 226.386923,12.3562061 225.487815,12.3562061 C224.623202,12.3562061 223.897131,11.6363879 223.897131,10.7450242 C223.897131,9.88785758 224.623202,9.16803939 225.487815,9.16803939 L225.487815,9.16803939 Z M221.994869,29.0191 L224.726685,29.0191 L224.726685,17.7391455 L221.994869,17.7391455 L221.994869,16.0937667 L226.732429,16.0937667 L226.732429,29.0191 L229.46481,29.0191 L229.46481,30.6302818 L221.994869,30.6302818 L221.994869,29.0191 Z" id="Fill-22" fill="#353535"></path>
                <path d="M233.059881,26.8246636 L233.059881,17.7389212 L230.501101,17.7389212 L230.501101,16.0935424 L233.059881,16.0935424 L233.059881,12.3217848 L235.06619,12.3217848 L235.06619,16.0935424 L239.80375,16.0935424 L239.80375,17.7389212 L235.06619,17.7389212 L235.06619,26.7220727 C235.06619,28.6073909 235.89631,29.3961636 237.729018,29.3961636 C238.628125,29.3961636 239.457679,29.2246182 239.976786,29.0188758 L239.976786,30.5622242 C239.077679,30.8705576 238.351042,31.0073455 237.244405,31.0073455 C235.619226,31.0073455 233.059881,30.4932697 233.059881,26.8246636" id="Fill-24" fill="#353535"></path>
                <path d="M244.782994,9.16803939 C245.682101,9.16803939 246.408173,9.88785758 246.408173,10.7450242 C246.408173,11.6363879 245.682101,12.3562061 244.782994,12.3562061 C243.918381,12.3562061 243.19231,11.6363879 243.19231,10.7450242 C243.19231,9.88785758 243.918381,9.16803939 244.782994,9.16803939 L244.782994,9.16803939 Z M241.290048,29.0191 L244.021863,29.0191 L244.021863,17.7391455 L241.290048,17.7391455 L241.290048,16.0937667 L246.027607,16.0937667 L246.027607,29.0191 L248.759988,29.0191 L248.759988,30.6302818 L241.290048,30.6302818 L241.290048,29.0191 Z" id="Fill-26" fill="#353535"></path>
                <path d="M262.868845,23.3619121 C262.868845,19.6933061 260.932655,17.3617455 257.716226,17.3617455 C254.534857,17.3617455 252.563042,19.6933061 252.563042,23.3619121 C252.563042,27.0305182 254.534857,29.3962758 257.716226,29.3962758 C260.932655,29.3962758 262.868845,27.0305182 262.868845,23.3619121 M250.522804,23.3619121 C250.522804,18.5962 253.531702,15.7163667 257.716226,15.7163667 C261.93581,15.7163667 264.944143,18.5962 264.944143,23.3619121 C264.944143,28.1618212 261.93581,31.0074576 257.716226,31.0074576 C253.531702,31.0074576 250.522804,28.1618212 250.522804,23.3619121" id="Fill-28" fill="#353535"></path>
                <g id="Group-32" transform="translate(266.904762, 15.604414)">
                    <mask id="mask-5" fill="white">
                        <use xlink:href="#path-4"></use>
                    </mask>
                    <g id="Clip-31"></g>
                    <path d="M0.216747024,13.4144621 L2.9485625,13.4144621 L2.9485625,2.13450758 L0.216747024,2.13450758 L0.216747024,0.489128788 L4.9198125,0.489128788 L4.9198125,2.75173485 C6.61397917,1.17475 8.65478274,0.111840909 10.7990685,0.111840909 C13.4274018,0.111840909 15.0876399,1.72358333 15.0876399,4.84335606 L15.0876399,13.4144621 L17.8194554,13.4144621 L17.8194554,15.0262045 L10.3495149,15.0262045 L10.3495149,13.4144621 L13.0813304,13.4144621 L13.0813304,5.08329545 C13.0813304,3.12902273 12.389753,1.79197727 10.2805268,1.79197727 C8.23972321,1.79197727 6.37252083,3.06062879 4.95430655,4.3287197 L4.95430655,13.4144621 L7.6866875,13.4144621 L7.6866875,15.0262045 L0.216747024,15.0262045 L0.216747024,13.4144621 Z" id="Fill-30" fill="#353535" mask="url(#mask-5)"></path>
                </g>
                <g id="Group-35" transform="translate(0.000000, 5.513505)">
                    <mask id="mask-7" fill="white">
                        <use xlink:href="#path-6"></use>
                    </mask>
                    <g id="Clip-34"></g>
                    <path d="M4.84550893,23.4509364 L25.0364018,23.4509364 L15.2774137,5.76942121 L4.84550893,23.4509364 Z M28.0164613,26.9530424 L1.76649107,26.9530424 C1.13372321,26.9530424 0.549020833,26.6172394 0.234050595,26.0734515 C-0.0809196429,25.529103 -0.0780922619,24.8591788 0.241401786,24.3176333 L13.8043482,1.33054242 C14.1210149,0.792921212 14.7017589,0.463284848 15.328872,0.463284848 C15.3373542,0.463284848 15.3452708,0.463284848 15.353753,0.463845455 C15.9899137,0.472815152 16.5723542,0.820390909 16.8782768,1.37370909 L29.5658661,24.3613606 C29.865003,24.9040273 29.8536935,25.5627394 29.5353304,26.0947545 C29.2175327,26.6273303 28.6401815,26.9530424 28.0164613,26.9530424 L28.0164613,26.9530424 Z" id="Fill-33" fill="#353535" mask="url(#mask-7)"></path>
                </g>
                <path d="M17.9704375,28.9644409 L44.9860625,28.9644409 L31.9286518,5.30630455 L17.9704375,28.9644409 Z M47.9655565,32.466547 L14.8914196,32.466547 C14.2586518,32.466547 13.6739494,32.1307439 13.3589792,31.5869561 C13.0445744,31.0426076 13.0468363,30.3726833 13.3663304,29.8311379 L30.4550208,0.866865152 C30.7762113,0.321956061 31.3705268,-0.00431666667 32.0049911,0.00012253819 C32.6411518,0.00969848485 33.2235923,0.357274242 33.5289494,0.910592424 L49.5155268,29.8748652 C49.8146637,30.4175318 49.8033542,31.0762439 49.4849911,31.6082591 C49.1671935,32.1408348 48.5892768,32.466547 47.9655565,32.466547 L47.9655565,32.466547 Z" id="Fill-36" fill="#353535"></path>
            </g>
        </g>
    </g>
</svg>