<!-- Generated by IcoMoon.io -->
<svg version="1.1" xmlns="http://www.w3.org/2000/svg" width="384" height="448" viewBox="0 0 384 448">
<title></title>
<g id="icomoon-ignore">
</g>
<path fill="#000" d="M296 224c0 4.25-1.75 8.25-4.75 11.25l-136 136c-3 3-7 4.75-11.25 4.75-8.75 0-16-7.25-16-16v-72h-112c-8.75 0-16-7.25-16-16v-96c0-8.75 7.25-16 16-16h112v-72c0-8.75 7.25-16 16-16 4.25 0 8.25 1.75 11.25 4.75l136 136c3 3 4.75 7 4.75 11.25zM384 136v176c0 39.75-32.25 72-72 72h-80c-4.25 0-8-3.75-8-8 0-7-3.25-24 8-24h80c22 0 40-18 40-40v-176c0-22-18-40-40-40h-72c-6.25 0-16 1.25-16-8 0-7-3.25-24 8-24h80c39.75 0 72 32.25 72 72z"></path>
</svg>
