<?xml version="1.0" encoding="UTF-8"?>
<svg width="180px" height="202px" viewBox="0 0 180 202" version="1.1" xmlns="http://www.w3.org/2000/svg" xmlns:xlink="http://www.w3.org/1999/xlink">
    <!-- Generator: Sketch 44.1 (41455) - http://www.bohemiancoding.com/sketch -->
    <title>empty_page</title>
    <desc>Created with Sketch.</desc>
    <defs>
        <path d="M1.33105469,64.2490234 C1.33105469,64.2490234 -3.89020438,36.5000622 20.494095,15.8567789 C31.6046094,4.95436042 56.1128843,3.8116422 67.3392087,3.84421374 C80.8211182,3.53068096 92.5551758,1.8199289 95.5942383,0.434082031 C96.9428711,7.53770234 95.8120117,30.2460937 84.0991211,40.7412109 C77.3383789,49.109375 59.9208984,53.5058594 44.7236328,53.1630859 C20.4487305,51.7773438 1.33105469,64.2490234 1.33105469,64.2490234 Z" id="path-1"></path>
        <filter x="-5.3%" y="-7.8%" width="110.5%" height="115.7%" filterUnits="objectBoundingBox" id="filter-2">
            <feOffset dx="0" dy="10" in="SourceAlpha" result="shadowOffsetInner1"></feOffset>
            <feComposite in="shadowOffsetInner1" in2="SourceAlpha" operator="arithmetic" k2="-1" k3="1" result="shadowInnerInner1"></feComposite>
            <feColorMatrix values="0 0 0 0 1   0 0 0 0 1   0 0 0 0 1  0 0 0 1 0" type="matrix" in="shadowInnerInner1"></feColorMatrix>
        </filter>
        <path d="M2.2890625,48.40625 C2.2890625,48.40625 0.598643894,39.6560191 0.581643527,37.3134269 C0.541723743,31.8126178 2.15505056,21.1039931 13.4059524,11.0608332 C20.7154762,3.49786425 36.8392857,2.70516468 44.225,2.72775944 C53.0946468,2.51026287 59.5652275,2.03060188 61.5654297,0.5625 C63.5656319,-0.905601882 64.2517857,18.0827832 56.5279762,28.8090188 C51.0684524,36.3544141 40.8316592,42.3230531 24.4804688,42.1259766 C12.4345703,41.6132812 5.125,41.0957031 2.2890625,48.40625 Z" id="path-3"></path>
        <filter x="-8.0%" y="-10.4%" width="116.0%" height="120.9%" filterUnits="objectBoundingBox" id="filter-4">
            <feOffset dx="0" dy="10" in="SourceAlpha" result="shadowOffsetInner1"></feOffset>
            <feComposite in="shadowOffsetInner1" in2="SourceAlpha" operator="arithmetic" k2="-1" k3="1" result="shadowInnerInner1"></feComposite>
            <feColorMatrix values="0 0 0 0 1   0 0 0 0 1   0 0 0 0 1  0 0 0 1 0" type="matrix" in="shadowInnerInner1"></feColorMatrix>
        </filter>
        <rect id="path-5" x="0" y="0" width="37" height="60" rx="2"></rect>
        <filter x="-16.2%" y="-10.0%" width="132.4%" height="120.0%" filterUnits="objectBoundingBox" id="filter-6">
            <feOffset dx="0" dy="12" in="SourceAlpha" result="shadowOffsetInner1"></feOffset>
            <feComposite in="shadowOffsetInner1" in2="SourceAlpha" operator="arithmetic" k2="-1" k3="1" result="shadowInnerInner1"></feComposite>
            <feColorMatrix values="0 0 0 0 1   0 0 0 0 1   0 0 0 0 1  0 0 0 1 0" type="matrix" in="shadowInnerInner1"></feColorMatrix>
        </filter>
    </defs>
    <g id="Page-1" stroke="none" stroke-width="1" fill="none" fill-rule="evenodd">
        <g id="empty_page">
            <g id="Illustration---No-data---begin-record">
                <g id="Group-6">
                    <g id="Group-3" transform="translate(8.000000, 0.000000)">
                        <g id="Group-4">
                            <g id="Group-2">
                                <g id="Group" transform="translate(69.000000, 0.000000)">
                                    <g id="Path-10">
                                        <use fill="#EEF1F6" fill-rule="evenodd" xlink:href="#path-1"></use>
                                        <use fill="black" fill-opacity="1" filter="url(#filter-2)" xlink:href="#path-1"></use>
                                        <path stroke="#CFD7E6" stroke-width="6" d="M3.87187649,59.3681743 C6.19054063,58.1680213 8.78179738,56.9790336 11.615303,55.8615203 C22.0493491,51.7464107 33.288975,49.5141881 44.8418913,50.1649725 C60.3809156,50.5045664 76.126151,45.8360995 81.7655484,38.855889 L81.9172957,38.6680626 L82.0971307,38.5069248 C86.8276234,34.268255 90.0926283,27.2638969 91.8032145,18.7264602 C92.8185797,13.6588307 93.191136,8.27217877 93.0016615,4.31338205 C87.2715934,5.58171701 77.3818188,6.61124517 67.3305047,6.84420111 C47.8804408,6.78776959 30.8127243,9.93451079 22.5952679,17.9980572 L22.4324915,18.1464555 C17.954139,21.9377434 14.3443664,26.1299896 11.5233759,30.6589312 C5.48527638,40.3527607 3.4774666,50.4894389 3.87187649,59.3681743 Z"></path>
                                    </g>
                                    <path d="M1,54.0350579 C1,54.0350579 2.70555227,44.9194727 15.6313976,36.42074 C33.4952503,25.691416 46.675925,27.0561272 46.675925,27.0561272 C48.8737523,27.0658698 48.9277122,27.5366253 46.8049256,28.1585022 C46.8049256,28.1585022 35.1712573,30.8765189 24.84375,38.0790033 C17.7829983,43.0032268 11.7490234,49.2079095 8.11621094,55.7674798 C3.53675453,60.4025366 1.02504721,58.8462022 1.02504721,58.8462022 L1,54.0350579 Z" id="Path-13" fill="#CFD7E6"></path>
                                    <path d="M16.9482422,56.6694336 C16.9482422,56.6694336 6.07763672,58.9365234 6.81933594,69.8754883 C7.56103516,80.8144531 3.78955078,57.2724609 3.78955078,57.2724609 C3.78955078,57.2724609 4.73974609,55.7900391 6.78710938,55.7900391 C8.83447266,55.7900391 16.8964844,54.9560547 16.8964844,54.9560547 L16.9482422,56.6694336 Z" id="Path-2" fill="#CFD7E6"></path>
                                </g>
                                <path d="M73.3651308,76.5168385 C73.3651308,76.5168385 62.4945253,78.5238722 63.1546815,88.2080366 C58.1546815,98.2607422 60.2064394,77.050693 60.2064394,77.050693 C60.2064394,77.050693 61.1566347,75.7383187 63.203998,75.7383187 C65.2513612,75.7383187 73.313373,75 73.313373,75 L73.3651308,76.5168385 Z" id="Path-2" fill="#CFD7E6" transform="translate(66.577341, 82.956196) scale(-1, 1) translate(-66.577341, -82.956196) "></path>
                                <rect id="Rectangle-8" fill="#CFD7E6" x="70" y="55" width="6" height="100" rx="3"></rect>
                            </g>
                            <g id="Group-18" transform="translate(41.500000, 61.500000) scale(-1, 1) translate(-41.500000, -61.500000) translate(10.000000, 37.000000)">
                                <g id="Path-10">
                                    <use fill="#EEF1F6" fill-rule="evenodd" xlink:href="#path-3"></use>
                                    <use fill="black" fill-opacity="1" filter="url(#filter-4)" xlink:href="#path-3"></use>
                                    <path stroke="#CFD7E6" stroke-width="6" d="M4.09771646,41.4162214 C5.57300479,40.4505183 7.32077649,39.7864084 9.34783444,39.3896198 C12.7517181,38.7233231 15.2128694,38.728784 24.5618367,39.1267232 C38.5654601,39.2854647 48.5406221,34.7303317 54.0934722,27.0559672 C57.1700351,22.7834719 59.0991295,16.4239207 59.7058562,9.83768676 C59.8909359,7.82858031 59.9305323,5.94246545 59.8428584,4.44520235 C56.6810329,5.21495075 51.8008472,5.54251817 44.2158223,5.7277454 C31.708651,5.68948281 20.7013255,7.8293261 15.5631094,13.145701 L15.4037464,13.2988723 C6.80885933,20.9711307 3.52415038,29.3801837 3.58156453,37.2916562 C3.58593678,37.8941368 3.77598614,39.3975361 4.09771646,41.4162214 Z"></path>
                                </g>
                                <path d="M1.82857143,35.9011062 C1.82857143,35.9011062 4.76414476,28.6210409 12.9980469,23.1181641 C22.2568359,17.3164063 29.9140327,19.0780124 29.9140327,19.0780124 C32.1075473,19.2765519 32.179263,19.9460755 30.0730087,20.6670665 C30.0730087,20.6670665 25.5593322,21.612426 18.9805993,26.2759901 C14.4828247,29.4643943 12.4798703,32.6197031 8.86523437,36.9794922 C5.94807153,39.9806628 3.58884129,39.5502782 3.58884129,39.5502782 L1.82857143,35.9011062 Z" id="Path-13" fill="#CFD7E6"></path>
                            </g>
                            <rect id="Rectangle-8" fill="#CFD7E6" x="70" y="65" width="6" height="100" rx="3"></rect>
                        </g>
                    </g>
                    <circle id="Oval" fill="#E0E5EE" cx="80.5" cy="143.5" r="16.5"></circle>
                    <circle id="Oval" fill="#E0E5EE" cx="97" cy="145" r="8"></circle>
                    <circle id="Oval" fill="#E0E5EE" cx="109" cy="148" r="11"></circle>
                    <path d="M63.5,143 C72.6126984,143 80,155.612698 80,146.5 C80,137.387302 72.6126984,130 63.5,130 C54.3873016,130 49,136.387302 49,145.5 C49,154.612698 54.3873016,143 63.5,143 Z" id="Oval" fill="#E0E5EE"></path>
                    <g id="Page-1" transform="translate(0.000000, 130.000000)">
                        <g id="Rectangle-2">
                            <use fill="#EEF1F6" fill-rule="evenodd" xlink:href="#path-5"></use>
                            <use fill="black" fill-opacity="1" filter="url(#filter-6)" xlink:href="#path-5"></use>
                            <rect stroke="#CFD7E6" stroke-width="6" x="3" y="3" width="31" height="54" rx="2"></rect>
                        </g>
                        <path d="M6,51 L6,42 L15.0003297,42 L12.0006595,42 C8.68658675,42 6,44.6930342 6,48 L6,51 Z" id="Rectangle-189-Copy-17" fill="#CFD7E6" transform="translate(10.500165, 48.000000) scale(1, -1) translate(-10.500165, -48.000000) "></path>
                        <rect id="Rectangle-3" fill="#FFFFFF" x="37" y="9" width="41" height="39"></rect>
                        <path d="M35,48 C111.81665,74.5080737 84.743243,71.6785183 168.904297,35.9111328 C185.102539,27.3691406 170.775391,16.9726562 158,21 L127,32" id="Stroke-9" stroke="#CFD7E6" stroke-width="6" fill="#FFFFFF" stroke-linecap="round" stroke-linejoin="round"></path>
                        <path d="M36,9 L60,9 C77,9 89.25932,16.4026647 93,19 L117,19 C130,19 130,39 117,39 L75,39" id="Stroke-10" stroke="#CFD7E6" stroke-width="6" fill="#FFFFFF" stroke-linecap="round" stroke-linejoin="round"></path>
                    </g>
                </g>
            </g>
        </g>
    </g>
</svg>